<svg xmlns="http://www.w3.org/2000/svg" xmlns:xlink="http://www.w3.org/1999/xlink" contentStyleType="text/css" data-diagram-type="ACTIVITY" height="1070px" preserveAspectRatio="none" style="width:363px;height:1070px;background:#FFFFFF;" version="1.1" viewBox="0 0 363 1070" width="363px" zoomAndPan="magnify"><title>System Design Bookstore - Core Process</title><defs/><g><g class="title" data-source-line="1"><text fill="#000000" font-family="sans-serif" font-size="14" font-weight="bold" lengthAdjust="spacing" textLength="320.5303" x="20" y="32.9951">System Design Bookstore - Core Process</text></g><ellipse cx="161.7075" cy="57.2969" fill="#222222" rx="10" ry="10" style="stroke:#222222;stroke-width:1;"/><rect fill="#F1F1F1" height="33.9688" rx="12.5" ry="12.5" style="stroke:#181818;stroke-width:0.5;" width="195.4824" x="63.9663" y="87.2969"/><text fill="#000000" font-family="sans-serif" font-size="12" lengthAdjust="spacing" textLength="175.4824" x="73.9663" y="108.4355">Customer Browses Collection</text><rect fill="#F1F1F1" height="33.9688" rx="12.5" ry="12.5" style="stroke:#181818;stroke-width:0.5;" width="248.0117" x="37.7017" y="141.2656"/><text fill="#000000" font-family="sans-serif" font-size="12" lengthAdjust="spacing" textLength="228.0117" x="47.7017" y="162.4043">System Presents Categorized Content</text><rect fill="#F1F1F1" height="33.9688" rx="12.5" ry="12.5" style="stroke:#181818;stroke-width:0.5;" width="162.7578" x="80.3286" y="195.2344"/><text fill="#000000" font-family="sans-serif" font-size="12" lengthAdjust="spacing" textLength="142.7578" x="90.3286" y="216.373">Customer Selects Items</text><rect fill="#F1F1F1" height="33.9688" rx="12.5" ry="12.5" style="stroke:#181818;stroke-width:0.5;" width="163.8418" x="79.7866" y="297.6055"/><text fill="#000000" font-family="sans-serif" font-size="12" lengthAdjust="spacing" textLength="143.8418" x="89.7866" y="318.7441">Create Customer Profile</text><rect fill="#F1F1F1" height="33.9688" rx="12.5" ry="12.5" style="stroke:#181818;stroke-width:0.5;" width="271.9824" x="25.7163" y="366.5742"/><text fill="#000000" font-family="sans-serif" font-size="12" lengthAdjust="spacing" textLength="251.9824" x="35.7163" y="387.7129">Generate Personalized Recommendations</text><polygon fill="#F1F1F1" points="116.3406,249.2031,207.0745,249.2031,219.0745,261.2031,207.0745,273.2031,116.3406,273.2031,104.3406,261.2031,116.3406,249.2031" style="stroke:#181818;stroke-width:0.5;"/><text fill="#000000" font-family="sans-serif" font-size="11" lengthAdjust="spacing" textLength="19.0083" x="165.7075" y="283.4136">yes</text><text fill="#000000" font-family="sans-serif" font-size="11" lengthAdjust="spacing" textLength="90.7339" x="116.3406" y="265.0112">Create Account?</text><text fill="#000000" font-family="sans-serif" font-size="11" lengthAdjust="spacing" textLength="13.7017" x="219.0745" y="258.6089">no</text><polygon fill="#F1F1F1" points="161.7075,420.543,173.7075,432.543,161.7075,444.543,149.7075,432.543,161.7075,420.543" style="stroke:#181818;stroke-width:0.5;"/><rect fill="#F1F1F1" height="33.9688" rx="12.5" ry="12.5" style="stroke:#181818;stroke-width:0.5;" width="140.2227" x="91.5962" y="512.9453"/><text fill="#000000" font-family="sans-serif" font-size="12" lengthAdjust="spacing" textLength="120.2227" x="101.5962" y="534.084">Process Transaction</text><polygon fill="#F1F1F1" points="122.1467,566.9141,201.2683,566.9141,213.2683,578.9141,201.2683,590.9141,122.1467,590.9141,110.1467,578.9141,122.1467,566.9141" style="stroke:#181818;stroke-width:0.5;"/><text fill="#000000" font-family="sans-serif" font-size="11" lengthAdjust="spacing" textLength="79.1216" x="122.1467" y="582.7222">Physical Item?</text><text fill="#000000" font-family="sans-serif" font-size="11" lengthAdjust="spacing" textLength="19.0083" x="91.1384" y="576.3198">yes</text><text fill="#000000" font-family="sans-serif" font-size="11" lengthAdjust="spacing" textLength="34.187" x="213.2683" y="576.3198">digital</text><rect fill="#F1F1F1" height="33.9688" rx="12.5" ry="12.5" style="stroke:#181818;stroke-width:0.5;" width="124.5898" x="22.8315" y="600.9141"/><text fill="#000000" font-family="sans-serif" font-size="12" lengthAdjust="spacing" textLength="104.5898" x="32.8315" y="622.0527">Update Inventory</text><rect fill="#F1F1F1" height="33.9688" rx="12.5" ry="12.5" style="stroke:#181818;stroke-width:0.5;" width="83.5566" x="43.3481" y="654.8828"/><text fill="#000000" font-family="sans-serif" font-size="12" lengthAdjust="spacing" textLength="63.5566" x="53.3481" y="676.0215">Ship Items</text><rect fill="#F1F1F1" height="33.9688" rx="12.5" ry="12.5" style="stroke:#181818;stroke-width:0.5;" width="141.7344" x="167.4214" y="600.9141"/><text fill="#000000" font-family="sans-serif" font-size="12" lengthAdjust="spacing" textLength="121.7344" x="177.4214" y="622.0527">Grant Digital Access</text><polygon fill="#F1F1F1" points="161.7075,694.8516,173.7075,706.8516,161.7075,718.8516,149.7075,706.8516,161.7075,694.8516" style="stroke:#181818;stroke-width:0.5;"/><polygon fill="#F1F1F1" points="117.1624,464.543,206.2527,464.543,218.2527,476.543,206.2527,488.543,117.1624,488.543,105.1624,476.543,117.1624,464.543" style="stroke:#181818;stroke-width:0.5;"/><text fill="#000000" font-family="sans-serif" font-size="11" lengthAdjust="spacing" textLength="19.0083" x="165.7075" y="498.7534">yes</text><text fill="#000000" font-family="sans-serif" font-size="11" lengthAdjust="spacing" textLength="89.0903" x="117.1624" y="480.3511">Make Purchase?</text><text fill="#000000" font-family="sans-serif" font-size="11" lengthAdjust="spacing" textLength="13.7017" x="218.2527" y="473.9487">no</text><polygon fill="#F1F1F1" points="161.7075,738.8516,173.7075,750.8516,161.7075,762.8516,149.7075,750.8516,161.7075,738.8516" style="stroke:#181818;stroke-width:0.5;"/><rect fill="#F1F1F1" height="33.9688" rx="12.5" ry="12.5" style="stroke:#181818;stroke-width:0.5;" width="230.8027" x="46.3062" y="831.2539"/><text fill="#000000" font-family="sans-serif" font-size="12" lengthAdjust="spacing" textLength="210.8027" x="56.3062" y="852.3926">Participate in Events &amp; Discussions</text><polygon fill="#F1F1F1" points="115.2073,782.8516,208.2078,782.8516,220.2078,794.8516,208.2078,806.8516,115.2073,806.8516,103.2073,794.8516,115.2073,782.8516" style="stroke:#181818;stroke-width:0.5;"/><text fill="#000000" font-family="sans-serif" font-size="11" lengthAdjust="spacing" textLength="19.0083" x="165.7075" y="817.062">yes</text><text fill="#000000" font-family="sans-serif" font-size="11" lengthAdjust="spacing" textLength="93.0005" x="115.2073" y="798.6597">Join Community?</text><text fill="#000000" font-family="sans-serif" font-size="11" lengthAdjust="spacing" textLength="13.7017" x="220.2078" y="792.2573">no</text><polygon fill="#F1F1F1" points="161.7075,885.2227,173.7075,897.2227,161.7075,909.2227,149.7075,897.2227,161.7075,885.2227" style="stroke:#181818;stroke-width:0.5;"/><rect fill="#F1F1F1" height="33.9688" rx="12.5" ry="12.5" style="stroke:#181818;stroke-width:0.5;" width="204.5586" x="59.4282" y="929.2227"/><text fill="#000000" font-family="sans-serif" font-size="12" lengthAdjust="spacing" textLength="184.5586" x="69.4282" y="950.3613">Analyze Customer Interactions</text><rect fill="#F1F1F1" height="33.9688" rx="12.5" ry="12.5" style="stroke:#181818;stroke-width:0.5;" width="244.2207" x="39.5972" y="983.1914"/><text fill="#000000" font-family="sans-serif" font-size="12" lengthAdjust="spacing" textLength="224.2207" x="49.5972" y="1004.3301">Update Content &amp; Recommendations</text><ellipse cx="161.7075" cy="1048.1602" fill="none" rx="11" ry="11" style="stroke:#222222;stroke-width:1;"/><ellipse cx="161.7075" cy="1048.1602" fill="#222222" rx="6" ry="6" style="stroke:#222222;stroke-width:1;"/><line style="stroke:#181818;stroke-width:1;" x1="161.7075" x2="161.7075" y1="67.2969" y2="87.2969"/><polygon fill="#181818" points="157.7075,77.2969,161.7075,87.2969,165.7075,77.2969,161.7075,81.2969" style="stroke:#181818;stroke-width:1;"/><line style="stroke:#181818;stroke-width:1;" x1="161.7075" x2="161.7075" y1="121.2656" y2="141.2656"/><polygon fill="#181818" points="157.7075,131.2656,161.7075,141.2656,165.7075,131.2656,161.7075,135.2656" style="stroke:#181818;stroke-width:1;"/><line style="stroke:#181818;stroke-width:1;" x1="161.7075" x2="161.7075" y1="175.2344" y2="195.2344"/><polygon fill="#181818" points="157.7075,185.2344,161.7075,195.2344,165.7075,185.2344,161.7075,189.2344" style="stroke:#181818;stroke-width:1;"/><line style="stroke:#181818;stroke-width:1;" x1="161.7075" x2="161.7075" y1="331.5742" y2="366.5742"/><polygon fill="#181818" points="157.7075,356.5742,161.7075,366.5742,165.7075,356.5742,161.7075,360.5742" style="stroke:#181818;stroke-width:1;"/><line style="stroke:#181818;stroke-width:1;" x1="161.7075" x2="161.7075" y1="273.2031" y2="297.6055"/><polygon fill="#181818" points="157.7075,287.6055,161.7075,297.6055,165.7075,287.6055,161.7075,291.6055" style="stroke:#181818;stroke-width:1;"/><line style="stroke:#181818;stroke-width:1;" x1="219.0745" x2="307.6987" y1="261.2031" y2="261.2031"/><polygon fill="#181818" points="303.6987,339.0742,307.6987,349.0742,311.6987,339.0742,307.6987,343.0742" style="stroke:#181818;stroke-width:1;"/><line style="stroke:#181818;stroke-width:1;" x1="307.6987" x2="307.6987" y1="261.2031" y2="432.543"/><line style="stroke:#181818;stroke-width:1;" x1="307.6987" x2="173.7075" y1="432.543" y2="432.543"/><polygon fill="#181818" points="183.7075,428.543,173.7075,432.543,183.7075,436.543,179.7075,432.543" style="stroke:#181818;stroke-width:1;"/><line style="stroke:#181818;stroke-width:1;" x1="161.7075" x2="161.7075" y1="400.543" y2="420.543"/><polygon fill="#181818" points="157.7075,410.543,161.7075,420.543,165.7075,410.543,161.7075,414.543" style="stroke:#181818;stroke-width:1;"/><line style="stroke:#181818;stroke-width:1;" x1="161.7075" x2="161.7075" y1="229.2031" y2="249.2031"/><polygon fill="#181818" points="157.7075,239.2031,161.7075,249.2031,165.7075,239.2031,161.7075,243.2031" style="stroke:#181818;stroke-width:1;"/><line style="stroke:#181818;stroke-width:1;" x1="85.1265" x2="85.1265" y1="634.8828" y2="654.8828"/><polygon fill="#181818" points="81.1265,644.8828,85.1265,654.8828,89.1265,644.8828,85.1265,648.8828" style="stroke:#181818;stroke-width:1;"/><line style="stroke:#181818;stroke-width:1;" x1="110.1467" x2="85.1265" y1="578.9141" y2="578.9141"/><line style="stroke:#181818;stroke-width:1;" x1="85.1265" x2="85.1265" y1="578.9141" y2="600.9141"/><polygon fill="#181818" points="81.1265,590.9141,85.1265,600.9141,89.1265,590.9141,85.1265,594.9141" style="stroke:#181818;stroke-width:1;"/><line style="stroke:#181818;stroke-width:1;" x1="213.2683" x2="238.2886" y1="578.9141" y2="578.9141"/><line style="stroke:#181818;stroke-width:1;" x1="238.2886" x2="238.2886" y1="578.9141" y2="600.9141"/><polygon fill="#181818" points="234.2886,590.9141,238.2886,600.9141,242.2886,590.9141,238.2886,594.9141" style="stroke:#181818;stroke-width:1;"/><line style="stroke:#181818;stroke-width:1;" x1="85.1265" x2="85.1265" y1="688.8516" y2="706.8516"/><line style="stroke:#181818;stroke-width:1;" x1="85.1265" x2="149.7075" y1="706.8516" y2="706.8516"/><polygon fill="#181818" points="139.7075,702.8516,149.7075,706.8516,139.7075,710.8516,143.7075,706.8516" style="stroke:#181818;stroke-width:1;"/><line style="stroke:#181818;stroke-width:1;" x1="238.2886" x2="238.2886" y1="634.8828" y2="706.8516"/><line style="stroke:#181818;stroke-width:1;" x1="238.2886" x2="173.7075" y1="706.8516" y2="706.8516"/><polygon fill="#181818" points="183.7075,702.8516,173.7075,706.8516,183.7075,710.8516,179.7075,706.8516" style="stroke:#181818;stroke-width:1;"/><line style="stroke:#181818;stroke-width:1;" x1="161.7075" x2="161.7075" y1="546.9141" y2="566.9141"/><polygon fill="#181818" points="157.7075,556.9141,161.7075,566.9141,165.7075,556.9141,161.7075,560.9141" style="stroke:#181818;stroke-width:1;"/><line style="stroke:#181818;stroke-width:1;" x1="161.7075" x2="161.7075" y1="488.543" y2="512.9453"/><polygon fill="#181818" points="157.7075,502.9453,161.7075,512.9453,165.7075,502.9453,161.7075,506.9453" style="stroke:#181818;stroke-width:1;"/><line style="stroke:#181818;stroke-width:1;" x1="218.2527" x2="325.6987" y1="476.543" y2="476.543"/><polygon fill="#181818" points="321.6987,605.8984,325.6987,615.8984,329.6987,605.8984,325.6987,609.8984" style="stroke:#181818;stroke-width:1;"/><line style="stroke:#181818;stroke-width:1;" x1="325.6987" x2="325.6987" y1="476.543" y2="750.8516"/><line style="stroke:#181818;stroke-width:1;" x1="325.6987" x2="173.7075" y1="750.8516" y2="750.8516"/><polygon fill="#181818" points="183.7075,746.8516,173.7075,750.8516,183.7075,754.8516,179.7075,750.8516" style="stroke:#181818;stroke-width:1;"/><line style="stroke:#181818;stroke-width:1;" x1="161.7075" x2="161.7075" y1="718.8516" y2="738.8516"/><polygon fill="#181818" points="157.7075,728.8516,161.7075,738.8516,165.7075,728.8516,161.7075,732.8516" style="stroke:#181818;stroke-width:1;"/><line style="stroke:#181818;stroke-width:1;" x1="161.7075" x2="161.7075" y1="444.543" y2="464.543"/><polygon fill="#181818" points="157.7075,454.543,161.7075,464.543,165.7075,454.543,161.7075,458.543" style="stroke:#181818;stroke-width:1;"/><line style="stroke:#181818;stroke-width:1;" x1="161.7075" x2="161.7075" y1="806.8516" y2="831.2539"/><polygon fill="#181818" points="157.7075,821.2539,161.7075,831.2539,165.7075,821.2539,161.7075,825.2539" style="stroke:#181818;stroke-width:1;"/><line style="stroke:#181818;stroke-width:1;" x1="220.2078" x2="287.1089" y1="794.8516" y2="794.8516"/><polygon fill="#181818" points="283.1089,838.2383,287.1089,848.2383,291.1089,838.2383,287.1089,842.2383" style="stroke:#181818;stroke-width:1;"/><line style="stroke:#181818;stroke-width:1;" x1="287.1089" x2="287.1089" y1="794.8516" y2="897.2227"/><line style="stroke:#181818;stroke-width:1;" x1="287.1089" x2="173.7075" y1="897.2227" y2="897.2227"/><polygon fill="#181818" points="183.7075,893.2227,173.7075,897.2227,183.7075,901.2227,179.7075,897.2227" style="stroke:#181818;stroke-width:1;"/><line style="stroke:#181818;stroke-width:1;" x1="161.7075" x2="161.7075" y1="865.2227" y2="885.2227"/><polygon fill="#181818" points="157.7075,875.2227,161.7075,885.2227,165.7075,875.2227,161.7075,879.2227" style="stroke:#181818;stroke-width:1;"/><line style="stroke:#181818;stroke-width:1;" x1="161.7075" x2="161.7075" y1="762.8516" y2="782.8516"/><polygon fill="#181818" points="157.7075,772.8516,161.7075,782.8516,165.7075,772.8516,161.7075,776.8516" style="stroke:#181818;stroke-width:1;"/><line style="stroke:#181818;stroke-width:1;" x1="161.7075" x2="161.7075" y1="909.2227" y2="929.2227"/><polygon fill="#181818" points="157.7075,919.2227,161.7075,929.2227,165.7075,919.2227,161.7075,923.2227" style="stroke:#181818;stroke-width:1;"/><line style="stroke:#181818;stroke-width:1;" x1="161.7075" x2="161.7075" y1="963.1914" y2="983.1914"/><polygon fill="#181818" points="157.7075,973.1914,161.7075,983.1914,165.7075,973.1914,161.7075,977.1914" style="stroke:#181818;stroke-width:1;"/><line style="stroke:#181818;stroke-width:1;" x1="161.7075" x2="161.7075" y1="1017.1602" y2="1037.1602"/><polygon fill="#181818" points="157.7075,1027.1602,161.7075,1037.1602,165.7075,1027.1602,161.7075,1031.1602" style="stroke:#181818;stroke-width:1;"/><!--SRC=[TLBRQiCm37ttL-Xfj0_xWUHXz3961uEmRXzW7BKHTUnWAHtfrqzEqb7M3G86IKVdeWY9HzWFBDZ25fcE0TOndbXYGdY4JNwg51qo6yDYavXYqskxnGJh5ByOMQUyHoSKGscAULcLa368DgtWCIQwOAs3GRHOtkpOOuOox1J4fJ5qWCKceO9WvLpiWpmjGHeCi1YGbmQWcDi_ArJVWJoMkVU20LFkLfWu1kj7tdTqiMqnr3QBL1hqZB08SMcqI8U9zisU5DSdrrZ6EzOv1VX8Dh2TtGBebx5LCp0vwqSVlx6A_kpgh6eNpke_fg6Solk6kgjrW4bLJKSIwsVWYz89RATQZaGrZBEZxZzzl4OA6dNRze5ak3UYHoH7NTQZWy_dyKmFoi6kP_ude6AbOGwNczXtUiiq1Q60gyFvnBhlBdJzVsBt3G00]--></g></svg>