<svg xmlns="http://www.w3.org/2000/svg" xmlns:xlink="http://www.w3.org/1999/xlink" contentStyleType="text/css" data-diagram-type="CLASS" height="528px" preserveAspectRatio="none" style="width:1499px;height:528px;background:#FFFFFF;" version="1.1" viewBox="0 0 1499 528" width="1499px" zoomAndPan="magnify"><title>System Design Bookstore -  Class Diagram</title><defs/><g><g class="title" data-source-line="7"><text fill="#000000" font-family="sans-serif" font-size="14" font-weight="bold" lengthAdjust="spacing" textLength="335.8838" x="574.8205" y="22.9951">System Design Bookstore -  Class Diagram</text></g><!--class Customer--><g class="entity" data-entity="Customer" data-source-line="9" data-uid="ent0002" id="entity_Customer"><rect fill="#E1EBF2" height="96.8906" rx="2.5" ry="2.5" style="stroke:#5C8DB8;stroke-width:0.5;" width="155.8896" x="1013.33" y="44.2969"/><ellipse cx="1053.4786" cy="60.2969" fill="#ADD1B2" rx="11" ry="11" style="stroke:#181818;stroke-width:1;"/><path d="M1056.4473,65.9375 Q1055.8692,66.2344 1055.2286,66.375 Q1054.588,66.5313 1053.8848,66.5313 Q1051.3848,66.5313 1050.0567,64.8906 Q1048.7442,63.2344 1048.7442,60.1094 Q1048.7442,56.9844 1050.0567,55.3281 Q1051.3848,53.6719 1053.8848,53.6719 Q1054.588,53.6719 1055.2286,53.8281 Q1055.8848,53.9844 1056.4473,54.2813 L1056.4473,57 Q1055.8223,56.4219 1055.2286,56.1563 Q1054.6348,55.875 1054.0098,55.875 Q1052.6661,55.875 1051.9786,56.9531 Q1051.2911,58.0156 1051.2911,60.1094 Q1051.2911,62.2031 1051.9786,63.2813 Q1052.6661,64.3438 1054.0098,64.3438 Q1054.6348,64.3438 1055.2286,64.0781 Q1055.8223,63.7969 1056.4473,63.2188 L1056.4473,65.9375 Z " fill="#000000"/><text fill="#000000" font-family="sans-serif" font-size="14" lengthAdjust="spacing" textLength="68.0039" x="1073.0672" y="65.1436">Customer</text><line style="stroke:#5C8DB8;stroke-width:0.5;" x1="1014.33" x2="1168.2196" y1="76.2969" y2="76.2969"/><ellipse cx="1024.33" cy="89.9453" fill="none" rx="3" ry="3" style="stroke:#038048;stroke-width:1;"/><text fill="#000000" font-family="sans-serif" font-size="14" lengthAdjust="spacing" textLength="129.8896" x="1033.33" y="93.292">customerId: String</text><ellipse cx="1024.33" cy="106.2422" fill="none" rx="3" ry="3" style="stroke:#038048;stroke-width:1;"/><text fill="#000000" font-family="sans-serif" font-size="14" lengthAdjust="spacing" textLength="90.6514" x="1033.33" y="109.5889">name: String</text><ellipse cx="1024.33" cy="122.5391" fill="none" rx="3" ry="3" style="stroke:#038048;stroke-width:1;"/><text fill="#000000" font-family="sans-serif" font-size="14" lengthAdjust="spacing" textLength="89.5576" x="1033.33" y="125.8857">email: String</text><line style="stroke:#5C8DB8;stroke-width:0.5;" x1="1014.33" x2="1168.2196" y1="133.1875" y2="133.1875"/></g><!--class WebInterface--><g class="entity" data-entity="WebInterface" data-source-line="15" data-uid="ent0003" id="entity_WebInterface"><rect fill="#E1EBF2" height="80.5938" rx="2.5" ry="2.5" style="stroke:#5C8DB8;stroke-width:0.5;" width="157.0244" x="391.76" y="52.4469"/><ellipse cx="420.7113" cy="68.4469" fill="#ADD1B2" rx="11" ry="11" style="stroke:#181818;stroke-width:1;"/><path d="M423.6801,74.0875 Q423.1019,74.3844 422.4613,74.525 Q421.8207,74.6812 421.1176,74.6812 Q418.6176,74.6812 417.2894,73.0406 Q415.9769,71.3844 415.9769,68.2594 Q415.9769,65.1344 417.2894,63.4781 Q418.6176,61.8219 421.1176,61.8219 Q421.8207,61.8219 422.4613,61.9781 Q423.1176,62.1344 423.6801,62.4312 L423.6801,65.15 Q423.0551,64.5719 422.4613,64.3062 Q421.8676,64.025 421.2426,64.025 Q419.8988,64.025 419.2113,65.1031 Q418.5238,66.1656 418.5238,68.2594 Q418.5238,70.3531 419.2113,71.4312 Q419.8988,72.4937 421.2426,72.4937 Q421.8676,72.4937 422.4613,72.2281 Q423.0551,71.9469 423.6801,71.3687 L423.6801,74.0875 Z " fill="#000000"/><text fill="#000000" font-family="sans-serif" font-size="14" lengthAdjust="spacing" textLength="94.0215" x="437.8116" y="73.2936">WebInterface</text><line style="stroke:#5C8DB8;stroke-width:0.5;" x1="392.76" x2="547.7844" y1="84.4469" y2="84.4469"/><line style="stroke:#5C8DB8;stroke-width:0.5;" x1="392.76" x2="547.7844" y1="92.4469" y2="92.4469"/><ellipse cx="402.76" cy="106.0953" fill="#84BE84" rx="3" ry="3" style="stroke:#038048;stroke-width:1;"/><text fill="#000000" font-family="sans-serif" font-size="14" lengthAdjust="spacing" textLength="129.8828" x="411.76" y="109.442">displayCollection()</text><ellipse cx="402.76" cy="122.3922" fill="#84BE84" rx="3" ry="3" style="stroke:#038048;stroke-width:1;"/><text fill="#000000" font-family="sans-serif" font-size="14" lengthAdjust="spacing" textLength="131.0244" x="411.76" y="125.7389">processCheckout()</text></g><!--class InventorySystem--><g class="entity" data-entity="InventorySystem" data-source-line="20" data-uid="ent0004" id="entity_InventorySystem"><rect fill="#E1EBF2" height="80.5938" rx="2.5" ry="2.5" style="stroke:#5C8DB8;stroke-width:0.5;" width="296.0059" x="121.27" y="234.4869"/><ellipse cx="205.4853" cy="250.4869" fill="#ADD1B2" rx="11" ry="11" style="stroke:#181818;stroke-width:1;"/><path d="M208.4541,256.1275 Q207.876,256.4244 207.2353,256.565 Q206.5947,256.7213 205.8916,256.7213 Q203.3916,256.7213 202.0635,255.0806 Q200.751,253.4244 200.751,250.2994 Q200.751,247.1744 202.0635,245.5181 Q203.3916,243.8619 205.8916,243.8619 Q206.5947,243.8619 207.2353,244.0181 Q207.8916,244.1744 208.4541,244.4713 L208.4541,247.19 Q207.8291,246.6119 207.2353,246.3463 Q206.6416,246.065 206.0166,246.065 Q204.6728,246.065 203.9853,247.1431 Q203.2978,248.2056 203.2978,250.2994 Q203.2978,252.3931 203.9853,253.4713 Q204.6728,254.5338 206.0166,254.5338 Q206.6416,254.5338 207.2353,254.2681 Q207.8291,253.9869 208.4541,253.4088 L208.4541,256.1275 Z " fill="#000000"/><text fill="#000000" font-family="sans-serif" font-size="14" lengthAdjust="spacing" textLength="119.0752" x="225.9853" y="255.3336">InventorySystem</text><line style="stroke:#5C8DB8;stroke-width:0.5;" x1="122.27" x2="416.2759" y1="266.4869" y2="266.4869"/><line style="stroke:#5C8DB8;stroke-width:0.5;" x1="122.27" x2="416.2759" y1="274.4869" y2="274.4869"/><ellipse cx="132.27" cy="288.1353" fill="#84BE84" rx="3" ry="3" style="stroke:#038048;stroke-width:1;"/><text fill="#000000" font-family="sans-serif" font-size="14" lengthAdjust="spacing" textLength="270.0059" x="141.27" y="291.482">getAvailableTitles(): List&lt;Publication&gt;</text><ellipse cx="132.27" cy="304.4322" fill="#84BE84" rx="3" ry="3" style="stroke:#038048;stroke-width:1;"/><text fill="#000000" font-family="sans-serif" font-size="14" lengthAdjust="spacing" textLength="268.6045" x="141.27" y="307.7789">updateInventory(publicationId: String)</text></g><!--class RecommendationEngine--><g class="entity" data-entity="RecommendationEngine" data-source-line="25" data-uid="ent0005" id="entity_RecommendationEngine"><rect fill="#E1EBF2" height="80.5938" rx="2.5" ry="2.5" style="stroke:#5C8DB8;stroke-width:0.5;" width="466.5146" x="452.02" y="234.4869"/><ellipse cx="595.2124" cy="250.4869" fill="#ADD1B2" rx="11" ry="11" style="stroke:#181818;stroke-width:1;"/><path d="M598.1811,256.1275 Q597.603,256.4244 596.9624,256.565 Q596.3218,256.7213 595.6186,256.7213 Q593.1186,256.7213 591.7905,255.0806 Q590.478,253.4244 590.478,250.2994 Q590.478,247.1744 591.7905,245.5181 Q593.1186,243.8619 595.6186,243.8619 Q596.3218,243.8619 596.9624,244.0181 Q597.6186,244.1744 598.1811,244.4713 L598.1811,247.19 Q597.5561,246.6119 596.9624,246.3463 Q596.3686,246.065 595.7436,246.065 Q594.3999,246.065 593.7124,247.1431 Q593.0249,248.2056 593.0249,250.2994 Q593.0249,252.3931 593.7124,253.4713 Q594.3999,254.5338 595.7436,254.5338 Q596.3686,254.5338 596.9624,254.2681 Q597.5561,253.9869 598.1811,253.4088 L598.1811,256.1275 Z " fill="#000000"/><text fill="#000000" font-family="sans-serif" font-size="14" lengthAdjust="spacing" textLength="171.6299" x="615.7124" y="255.3336">RecommendationEngine</text><line style="stroke:#5C8DB8;stroke-width:0.5;" x1="453.02" x2="917.5346" y1="266.4869" y2="266.4869"/><line style="stroke:#5C8DB8;stroke-width:0.5;" x1="453.02" x2="917.5346" y1="274.4869" y2="274.4869"/><ellipse cx="463.02" cy="288.1353" fill="#84BE84" rx="3" ry="3" style="stroke:#038048;stroke-width:1;"/><text fill="#000000" font-family="sans-serif" font-size="14" lengthAdjust="spacing" textLength="440.5146" x="472.02" y="291.482">getRecommendations(publicationId: String): List&lt;Publication&gt;</text><ellipse cx="463.02" cy="304.4322" fill="#84BE84" rx="3" ry="3" style="stroke:#038048;stroke-width:1;"/><text fill="#000000" font-family="sans-serif" font-size="14" lengthAdjust="spacing" textLength="302.2305" x="472.02" y="307.7789">updateCustomerProfile(customerId: String)</text></g><!--class FulfillmentSystem--><g class="entity" data-entity="FulfillmentSystem" data-source-line="32" data-uid="ent0006" id="entity_FulfillmentSystem"><rect fill="#E1EBF2" height="80.5938" rx="2.5" ry="2.5" style="stroke:#5C8DB8;stroke-width:0.5;" width="282.5049" x="1210.02" y="52.4469"/><ellipse cx="1283.9062" cy="68.4469" fill="#ADD1B2" rx="11" ry="11" style="stroke:#181818;stroke-width:1;"/><path d="M1286.875,74.0875 Q1286.2969,74.3844 1285.6562,74.525 Q1285.0156,74.6812 1284.3125,74.6812 Q1281.8125,74.6812 1280.4844,73.0406 Q1279.1719,71.3844 1279.1719,68.2594 Q1279.1719,65.1344 1280.4844,63.4781 Q1281.8125,61.8219 1284.3125,61.8219 Q1285.0156,61.8219 1285.6562,61.9781 Q1286.3125,62.1344 1286.875,62.4312 L1286.875,65.15 Q1286.25,64.5719 1285.6562,64.3062 Q1285.0625,64.025 1284.4375,64.025 Q1283.0937,64.025 1282.4062,65.1031 Q1281.7187,66.1656 1281.7187,68.2594 Q1281.7187,70.3531 1282.4062,71.4312 Q1283.0937,72.4937 1284.4375,72.4937 Q1285.0625,72.4937 1285.6562,72.2281 Q1286.25,71.9469 1286.875,71.3687 L1286.875,74.0875 Z " fill="#000000"/><text fill="#000000" font-family="sans-serif" font-size="14" lengthAdjust="spacing" textLength="126.2324" x="1304.4062" y="73.2936">FulfillmentSystem</text><line style="stroke:#5C8DB8;stroke-width:0.5;" x1="1211.02" x2="1491.5249" y1="84.4469" y2="84.4469"/><line style="stroke:#5C8DB8;stroke-width:0.5;" x1="1211.02" x2="1491.5249" y1="92.4469" y2="92.4469"/><ellipse cx="1221.02" cy="106.0953" fill="#84BE84" rx="3" ry="3" style="stroke:#038048;stroke-width:1;"/><text fill="#000000" font-family="sans-serif" font-size="14" lengthAdjust="spacing" textLength="256.5049" x="1230.02" y="109.442">createFulfillmentOrder(order: Order)</text><ellipse cx="1221.02" cy="122.3922" fill="#84BE84" rx="3" ry="3" style="stroke:#038048;stroke-width:1;"/><text fill="#000000" font-family="sans-serif" font-size="14" lengthAdjust="spacing" textLength="173.2773" x="1230.02" y="125.7389">shipItem(orderId: String)</text></g><!--class Publication--><g class="entity" data-entity="Publication" data-source-line="37" data-uid="ent0007" id="entity_Publication"><rect fill="#E1EBF2" height="113.1875" rx="2.5" ry="2.5" style="stroke:#5C8DB8;stroke-width:0.5;" width="319.1729" x="317.69" y="408.3769"/><ellipse cx="434.4888" cy="424.3769" fill="#ADD1B2" rx="11" ry="11" style="stroke:#181818;stroke-width:1;"/><path d="M437.4576,430.0175 Q436.8795,430.3144 436.2388,430.455 Q435.5982,430.6113 434.8951,430.6113 Q432.3951,430.6113 431.067,428.9706 Q429.7545,427.3144 429.7545,424.1894 Q429.7545,421.0644 431.067,419.4081 Q432.3951,417.7519 434.8951,417.7519 Q435.5982,417.7519 436.2388,417.9081 Q436.8951,418.0644 437.4576,418.3613 L437.4576,421.08 Q436.8326,420.5019 436.2388,420.2363 Q435.6451,419.955 435.0201,419.955 Q433.6763,419.955 432.9888,421.0331 Q432.3013,422.0956 432.3013,424.1894 Q432.3013,426.2831 432.9888,427.3613 Q433.6763,428.4238 435.0201,428.4238 Q435.6451,428.4238 436.2388,428.1581 Q436.8326,427.8769 437.4576,427.2988 L437.4576,430.0175 Z " fill="#000000"/><text fill="#000000" font-family="sans-serif" font-size="14" lengthAdjust="spacing" textLength="77.0752" x="454.9888" y="429.2236">Publication</text><line style="stroke:#5C8DB8;stroke-width:0.5;" x1="318.69" x2="635.8629" y1="440.3769" y2="440.3769"/><ellipse cx="328.69" cy="454.0253" fill="none" rx="3" ry="3" style="stroke:#038048;stroke-width:1;"/><text fill="#000000" font-family="sans-serif" font-size="14" lengthAdjust="spacing" textLength="141.4834" x="337.69" y="457.372">publicationId: String</text><ellipse cx="328.69" cy="470.3222" fill="none" rx="3" ry="3" style="stroke:#038048;stroke-width:1;"/><text fill="#000000" font-family="sans-serif" font-size="14" lengthAdjust="spacing" textLength="78.3193" x="337.69" y="473.6689">title: String</text><ellipse cx="328.69" cy="486.6191" fill="none" rx="3" ry="3" style="stroke:#038048;stroke-width:1;"/><text fill="#000000" font-family="sans-serif" font-size="14" lengthAdjust="spacing" textLength="91.7246" x="337.69" y="489.9657">price: double</text><ellipse cx="328.69" cy="502.9159" fill="none" rx="3" ry="3" style="stroke:#038048;stroke-width:1;"/><text fill="#000000" font-family="sans-serif" font-size="14" lengthAdjust="spacing" textLength="293.1729" x="337.69" y="506.2626">format: String  // "PHYSICAL" or "DIGITAL"</text><line style="stroke:#5C8DB8;stroke-width:0.5;" x1="318.69" x2="635.8629" y1="513.5644" y2="513.5644"/></g><!--class Order--><g class="entity" data-entity="Order" data-source-line="44" data-uid="ent0008" id="entity_Order"><rect fill="#E1EBF2" height="113.1875" rx="2.5" ry="2.5" style="stroke:#5C8DB8;stroke-width:0.5;" width="199.0996" x="1251.73" y="218.1869"/><ellipse cx="1327.0142" cy="234.1869" fill="#ADD1B2" rx="11" ry="11" style="stroke:#181818;stroke-width:1;"/><path d="M1329.9829,239.8275 Q1329.4048,240.1244 1328.7642,240.265 Q1328.1236,240.4213 1327.4204,240.4213 Q1324.9204,240.4213 1323.5923,238.7806 Q1322.2798,237.1244 1322.2798,233.9994 Q1322.2798,230.8744 1323.5923,229.2181 Q1324.9204,227.5619 1327.4204,227.5619 Q1328.1236,227.5619 1328.7642,227.7181 Q1329.4204,227.8744 1329.9829,228.1713 L1329.9829,230.89 Q1329.3579,230.3119 1328.7642,230.0463 Q1328.1704,229.765 1327.5454,229.765 Q1326.2017,229.765 1325.5142,230.8431 Q1324.8267,231.9056 1324.8267,233.9994 Q1324.8267,236.0931 1325.5142,237.1713 Q1326.2017,238.2338 1327.5454,238.2338 Q1328.1704,238.2338 1328.7642,237.9681 Q1329.3579,237.6869 1329.9829,237.1088 L1329.9829,239.8275 Z " fill="#000000"/><text fill="#000000" font-family="sans-serif" font-size="14" lengthAdjust="spacing" textLength="40.0313" x="1347.5142" y="239.0336">Order</text><line style="stroke:#5C8DB8;stroke-width:0.5;" x1="1252.73" x2="1449.8296" y1="250.1869" y2="250.1869"/><ellipse cx="1262.73" cy="263.8353" fill="none" rx="3" ry="3" style="stroke:#038048;stroke-width:1;"/><text fill="#000000" font-family="sans-serif" font-size="14" lengthAdjust="spacing" textLength="101.541" x="1271.73" y="267.182">orderId: String</text><ellipse cx="1262.73" cy="280.1322" fill="none" rx="3" ry="3" style="stroke:#038048;stroke-width:1;"/><text fill="#000000" font-family="sans-serif" font-size="14" lengthAdjust="spacing" textLength="143.0967" x="1271.73" y="283.4789">customer: Customer</text><ellipse cx="1262.73" cy="296.4291" fill="none" rx="3" ry="3" style="stroke:#038048;stroke-width:1;"/><text fill="#000000" font-family="sans-serif" font-size="14" lengthAdjust="spacing" textLength="173.0996" x="1271.73" y="299.7757">items: List&lt;Publication&gt;</text><ellipse cx="1262.73" cy="312.7259" fill="none" rx="3" ry="3" style="stroke:#038048;stroke-width:1;"/><text fill="#000000" font-family="sans-serif" font-size="14" lengthAdjust="spacing" textLength="93.9668" x="1271.73" y="316.0726">status: String</text><line style="stroke:#5C8DB8;stroke-width:0.5;" x1="1252.73" x2="1449.8296" y1="323.3744" y2="323.3744"/></g><!--class ShoppingCart--><g class="entity" data-entity="ShoppingCart" data-source-line="51" data-uid="ent0009" id="entity_ShoppingCart"><rect fill="#E1EBF2" height="96.8906" rx="2.5" ry="2.5" style="stroke:#5C8DB8;stroke-width:0.5;" width="263.7471" x="953.4" y="226.3369"/><ellipse cx="1033.3497" cy="242.3369" fill="#ADD1B2" rx="11" ry="11" style="stroke:#181818;stroke-width:1;"/><path d="M1036.3185,247.9775 Q1035.7403,248.2744 1035.0997,248.415 Q1034.4591,248.5712 1033.756,248.5712 Q1031.256,248.5712 1029.9278,246.9306 Q1028.6153,245.2744 1028.6153,242.1494 Q1028.6153,239.0244 1029.9278,237.3681 Q1031.256,235.7119 1033.756,235.7119 Q1034.4591,235.7119 1035.0997,235.8681 Q1035.756,236.0244 1036.3185,236.3212 L1036.3185,239.04 Q1035.6935,238.4619 1035.0997,238.1962 Q1034.506,237.915 1033.881,237.915 Q1032.5372,237.915 1031.8497,238.9931 Q1031.1622,240.0556 1031.1622,242.1494 Q1031.1622,244.2431 1031.8497,245.3212 Q1032.5372,246.3837 1033.881,246.3837 Q1034.506,246.3837 1035.0997,246.1181 Q1035.6935,245.8369 1036.3185,245.2587 L1036.3185,247.9775 Z " fill="#000000"/><text fill="#000000" font-family="sans-serif" font-size="14" lengthAdjust="spacing" textLength="95.3477" x="1053.8497" y="247.1836">ShoppingCart</text><line style="stroke:#5C8DB8;stroke-width:0.5;" x1="954.4" x2="1216.1471" y1="258.3369" y2="258.3369"/><line style="stroke:#5C8DB8;stroke-width:0.5;" x1="954.4" x2="1216.1471" y1="266.3369" y2="266.3369"/><ellipse cx="964.4" cy="279.9853" fill="#84BE84" rx="3" ry="3" style="stroke:#038048;stroke-width:1;"/><text fill="#000000" font-family="sans-serif" font-size="14" lengthAdjust="spacing" textLength="232.9072" x="973.4" y="283.332">addItem(publication: Publication)</text><ellipse cx="964.4" cy="296.2822" fill="#84BE84" rx="3" ry="3" style="stroke:#038048;stroke-width:1;"/><text fill="#000000" font-family="sans-serif" font-size="14" lengthAdjust="spacing" textLength="237.7471" x="973.4" y="299.6289">removeItem(publicationId: String)</text><ellipse cx="964.4" cy="312.5791" fill="#84BE84" rx="3" ry="3" style="stroke:#038048;stroke-width:1;"/><text fill="#000000" font-family="sans-serif" font-size="14" lengthAdjust="spacing" textLength="125.8701" x="973.4" y="315.9257">getTotal(): double</text></g><!--class PaymentDetails--><g class="entity" data-entity="PaymentDetails" data-source-line="57" data-uid="ent0010" id="entity_PaymentDetails"><rect fill="#E1EBF2" height="80.5938" rx="2.5" ry="2.5" style="stroke:#5C8DB8;stroke-width:0.5;" width="191.8193" x="1255.37" y="424.6769"/><ellipse cx="1292.5839" cy="440.6769" fill="#ADD1B2" rx="11" ry="11" style="stroke:#181818;stroke-width:1;"/><path d="M1295.5527,446.3175 Q1294.9745,446.6144 1294.3339,446.755 Q1293.6933,446.9113 1292.9902,446.9113 Q1290.4902,446.9113 1289.162,445.2706 Q1287.8495,443.6144 1287.8495,440.4894 Q1287.8495,437.3644 1289.162,435.7081 Q1290.4902,434.0519 1292.9902,434.0519 Q1293.6933,434.0519 1294.3339,434.2081 Q1294.9902,434.3644 1295.5527,434.6613 L1295.5527,437.38 Q1294.9277,436.8019 1294.3339,436.5363 Q1293.7402,436.255 1293.1152,436.255 Q1291.7714,436.255 1291.0839,437.3331 Q1290.3964,438.3956 1290.3964,440.4894 Q1290.3964,442.5831 1291.0839,443.6613 Q1291.7714,444.7238 1293.1152,444.7238 Q1293.7402,444.7238 1294.3339,444.4581 Q1294.9277,444.1769 1295.5527,443.5988 L1295.5527,446.3175 Z " fill="#000000"/><text fill="#000000" font-family="sans-serif" font-size="14" lengthAdjust="spacing" textLength="110.4551" x="1311.5203" y="445.5236">PaymentDetails</text><line style="stroke:#5C8DB8;stroke-width:0.5;" x1="1256.37" x2="1446.1893" y1="456.6769" y2="456.6769"/><ellipse cx="1266.37" cy="470.3253" fill="none" rx="3" ry="3" style="stroke:#038048;stroke-width:1;"/><text fill="#000000" font-family="sans-serif" font-size="14" lengthAdjust="spacing" textLength="110.8994" x="1275.37" y="473.672">amount: double</text><ellipse cx="1266.37" cy="486.6222" fill="none" rx="3" ry="3" style="stroke:#038048;stroke-width:1;"/><text fill="#000000" font-family="sans-serif" font-size="14" lengthAdjust="spacing" textLength="165.8193" x="1275.37" y="489.9689">paymentMethod: String</text><line style="stroke:#5C8DB8;stroke-width:0.5;" x1="1256.37" x2="1446.1893" y1="497.2706" y2="497.2706"/></g><!--link Customer to ShoppingCart--><g class="link" data-entity-1="Customer" data-entity-2="ShoppingCart" data-source-line="63" data-uid="lnk11" id="link_Customer_ShoppingCart"><path codeLine="63" d="M1089.68,141.5169 C1088.81,167.6669 1087.74,199.9669 1086.86,226.0969" fill="none" id="Customer-ShoppingCart" style="stroke:#5C8DB8;stroke-width:1;"/><polygon fill="#000000" points="1093.1134,184.7505,1096.3521,175.8084,1090.4775,175.6125,1093.1134,184.7505" style="stroke:#000000;stroke-width:1;"/><text fill="#000000" font-family="sans-serif" font-size="13" lengthAdjust="spacing" textLength="22.9785" x="1102.28" y="184.2538">has</text><text fill="#000000" font-family="sans-serif" font-size="13" lengthAdjust="spacing" textLength="8.271" x="1080.9464" y="161.1546">1</text><text fill="#000000" font-family="sans-serif" font-size="13" lengthAdjust="spacing" textLength="8.271" x="1078.5397" y="215.272">1</text></g><!--link Customer to Order--><g class="link" data-entity-1="Customer" data-entity-2="Order" data-source-line="64" data-uid="lnk12" id="link_Customer_Order"><path codeLine="64" d="M1160.27,141.5169 C1194.12,164.9569 1235.1,193.3369 1270.42,217.7969" fill="none" id="Customer-Order" style="stroke:#5C8DB8;stroke-width:1;"/><polygon fill="#000000" points="1230.3906,182.5999,1224.6277,175.0342,1221.2813,179.8665,1230.3906,182.5999" style="stroke:#000000;stroke-width:1;"/><text fill="#000000" font-family="sans-serif" font-size="13" lengthAdjust="spacing" textLength="41.7485" x="1235.28" y="184.2538">places</text><text fill="#000000" font-family="sans-serif" font-size="13" lengthAdjust="spacing" textLength="8.271" x="1161.0219" y="161.1546">1</text><text fill="#000000" font-family="sans-serif" font-size="13" lengthAdjust="spacing" textLength="23.0356" x="1236.1658" y="207.0129">0..*</text></g><!--link WebInterface to ShoppingCart--><g class="link" data-entity-1="WebInterface" data-entity-2="ShoppingCart" data-source-line="65" data-uid="lnk13" id="link_WebInterface_ShoppingCart"><path codeLine="65" d="M549.27,112.3869 C642.5,134.9469 801.86,175.2769 936.28,218.1869 C943.9,220.6269 951.71,223.2269 959.57,225.9169" fill="none" id="WebInterface-ShoppingCart" style="stroke:#5C8DB8;stroke-width:1;"/><polygon fill="#000000" points="845.0989,181.0867,837.1652,175.842,835.5977,181.507,845.0989,181.0867" style="stroke:#000000;stroke-width:1;"/><text fill="#000000" font-family="sans-serif" font-size="13" lengthAdjust="spacing" textLength="59.8584" x="849.28" y="184.2538">manages</text><text fill="#000000" font-family="sans-serif" font-size="13" lengthAdjust="spacing" textLength="8.271" x="556.6741" y="110.5412">1</text><text fill="#000000" font-family="sans-serif" font-size="13" lengthAdjust="spacing" textLength="8.271" x="937.3985" y="216.8261">1</text></g><!--link WebInterface to Publication--><g class="link" data-entity-1="WebInterface" data-entity-2="Publication" data-source-line="66" data-uid="lnk14" id="link_WebInterface_Publication"><path codeLine="66" d="M391.34,104.9469 C278.24,122.7869 78.97,161.5369 36.28,218.1869 C6,258.3669 6.26,291.0069 36.28,331.3769 C70.59,377.5369 205.63,413.6869 317.34,436.5069" fill="none" id="WebInterface-Publication" style="stroke:#5C8DB8;stroke-width:1;"/><polygon fill="#000000" points="40.1909,279.7332,45.0295,271.5455,39.2928,270.2651,40.1909,279.7332" style="stroke:#000000;stroke-width:1;"/><text fill="#000000" font-family="sans-serif" font-size="13" lengthAdjust="spacing" textLength="52.9331" x="50.28" y="279.3538">displays</text><text fill="#000000" font-family="sans-serif" font-size="13" lengthAdjust="spacing" textLength="8.271" x="375.4484" y="102.4684">1</text><text fill="#000000" font-family="sans-serif" font-size="13" lengthAdjust="spacing" textLength="23.0356" x="286.5726" y="431.9472">0..*</text></g><!--link InventorySystem to Publication--><g class="link" data-entity-1="InventorySystem" data-entity-2="Publication" data-source-line="67" data-uid="lnk15" id="link_InventorySystem_Publication"><path codeLine="67" d="M313.13,315.4669 C342.81,342.3169 382.44,378.1769 415.33,407.9269" fill="none" id="InventorySystem-Publication" style="stroke:#5C8DB8;stroke-width:1;"/><polygon fill="#000000" points="388.9878,373.2977,384.252,365.0501,380.3086,369.4089,388.9878,373.2977" style="stroke:#000000;stroke-width:1;"/><text fill="#000000" font-family="sans-serif" font-size="13" lengthAdjust="spacing" textLength="59.8584" x="394.28" y="374.4438">manages</text><text fill="#000000" font-family="sans-serif" font-size="13" lengthAdjust="spacing" textLength="8.271" x="311.5038" y="335.2235">1</text><text fill="#000000" font-family="sans-serif" font-size="13" lengthAdjust="spacing" textLength="23.0356" x="383.3809" y="397.1356">0..*</text></g><!--link RecommendationEngine to Publication--><g class="link" data-entity-1="RecommendationEngine" data-entity-2="Publication" data-source-line="68" data-uid="lnk16" id="link_RecommendationEngine_Publication"><path codeLine="68" d="M641.42,315.4669 C611.74,342.3169 572.11,378.1769 539.22,407.9269" fill="none" id="RecommendationEngine-Publication" style="stroke:#5C8DB8;stroke-width:1;"/><polygon fill="#000000" points="589.5722,373.2977,598.2514,369.4089,594.308,365.0501,589.5722,373.2977" style="stroke:#000000;stroke-width:1;"/><text fill="#000000" font-family="sans-serif" font-size="13" lengthAdjust="spacing" textLength="85.0332" x="602.28" y="374.4438">recommends</text></g><!--link FulfillmentSystem to Order--><g class="link" data-entity-1="FulfillmentSystem" data-entity-2="Order" data-source-line="69" data-uid="lnk17" id="link_FulfillmentSystem_Order"><path codeLine="69" d="M1351.28,133.2569 C1351.28,158.0969 1351.28,190.5269 1351.28,217.9769" fill="none" id="FulfillmentSystem-Order" style="stroke:#5C8DB8;stroke-width:1;"/><polygon fill="#000000" points="1356.28,184.7533,1359.2189,175.7082,1353.3411,175.7082,1356.28,184.7533" style="stroke:#000000;stroke-width:1;"/><text fill="#000000" font-family="sans-serif" font-size="13" lengthAdjust="spacing" textLength="65.0127" x="1365.28" y="184.2538">processes</text></g><!--link Order to Publication--><g class="link" data-entity-1="Order" data-entity-2="Publication" data-source-line="70" data-uid="lnk18" id="link_Order_Publication"><path codeLine="70" d="M1251.47,325.3569 C1245.71,327.5369 1239.95,329.5669 1234.28,331.3769 C1033.58,395.3369 792.52,430.8369 637.21,448.6569" fill="none" id="Order-Publication" style="stroke:#5C8DB8;stroke-width:1;"/><polygon fill="#000000" points="1113.3778,370.9273,1122.8244,372.0286,1121.6676,366.2657,1113.3778,370.9273" style="stroke:#000000;stroke-width:1;"/><text fill="#000000" font-family="sans-serif" font-size="13" lengthAdjust="spacing" textLength="55.0278" x="1127.28" y="374.4438">contains</text></g><!--link Order to PaymentDetails--><g class="link" data-entity-1="Order" data-entity-2="PaymentDetails" data-source-line="71" data-uid="lnk19" id="link_Order_PaymentDetails"><path codeLine="71" d="M1351.28,331.7369 C1351.28,361.5369 1351.28,397.4669 1351.28,424.3569" fill="none" id="Order-PaymentDetails" style="stroke:#5C8DB8;stroke-width:1;"/><polygon fill="#000000" points="1356.28,374.9433,1359.2189,365.8982,1353.3411,365.8982,1356.28,374.9433" style="stroke:#000000;stroke-width:1;"/><text fill="#000000" font-family="sans-serif" font-size="13" lengthAdjust="spacing" textLength="22.9785" x="1365.28" y="374.4438">has</text></g><!--SRC=[XLJRYjim47ttLmZteTcMx7OBXSMKXTJfnR1bGnCeVLJaYICYIqQIKqBPV-zOiXmhbpOlmJD7PyuSpSZik6oefZLXWXf3_YG4VvyesrLQjRBCbL2Ql89xM6_U-vpI9UW-_e4zbEi75vzfhNx7uPSaiTmA8Ck3iL2JEHXUIMHGEsEL1Z8b97TbvvnMA299l8gynNmDkfVpblNVHPcHfTLSLZukQGrn16hAnH1w2OG_OLr82tf36GJIafj6q0DA5i0iLt9ounEDLWoCoRV0Tggr61vu2ha7YT8FVKSzLGLsjiV2T2rWrNLi9ZSPUUB6VboqQy4PxVWVFRXjIcfXO9eqHyInlr7D7y1KNOCi7UIphBY4KU4uRQxG_KTDC7oXrOOBc9mRxWG5ILzQWJ21LMri1DE0RAFqSpSi4pSo6N4VlSbcovi2J_hSnSP7OWF_nUPyoarQ76eqPnWg5Pu27zeeNLCRO8JStP5qyUtNiiXdJod1sKtdnTTYXHz77KvsK70YDvxFR9XS7-VOeBbglR7KjkPyM9TRrJGOoQcseImjI-VMo81iR53lgePQxU4KENOtZCrAMIgwAUtTERfE3zt5pS7YG9kXVeslWOszR3poEzYjAiTjlCQP5NuSyPPDCgnpUf-IwTJzZPlCo9OQydYEUtTx-oRr_cS4bnNN4c7HCb-bhAcarNMyfrwCxUmVXEx8wPx_uzInpiL5nLCHN0TGT-9yZn0UslMla6Fs4tXAnPJ4Ev8n8BgztjY_]--></g></svg>