<svg xmlns="http://www.w3.org/2000/svg" xmlns:xlink="http://www.w3.org/1999/xlink" contentStyleType="text/css" data-diagram-type="CLASS" height="373px" preserveAspectRatio="none" style="width:1385px;height:373px;background:#FFFFFF;" version="1.1" viewBox="0 0 1385 373" width="1385px" zoomAndPan="magnify"><title>System Design Bookstore - Communication Diagram</title><defs/><g><g class="title" data-source-line="7"><text fill="#000000" font-family="sans-serif" font-size="14" font-weight="bold" lengthAdjust="spacing" textLength="412.4463" x="479.484" y="22.9951">System Design Bookstore - Communication Diagram</text></g><g class="entity" data-entity="customer" data-source-line="9" data-uid="ent0002" id="entity_customer"><rect fill="#E1EBF2" height="36.2969" rx="2.5" ry="2.5" style="stroke:#5C8DB8;stroke-width:0.5;" width="152.6465" x="338.6" y="44.2969"/><text fill="#000000" font-family="sans-serif" font-size="14" lengthAdjust="spacing" textLength="138.6465" x="345.6" y="59.292">customer:Customer</text><line style="stroke:#5C8DB8;stroke-width:0.5;" x1="339.6" x2="490.2465" y1="64.5938" y2="64.5938"/></g><g class="entity" data-entity="webInterface" data-source-line="10" data-uid="ent0003" id="entity_webInterface"><rect fill="#E1EBF2" height="36.2969" rx="2.5" ry="2.5" style="stroke:#5C8DB8;stroke-width:0.5;" width="178.999" x="441.43" y="202.5969"/><text fill="#000000" font-family="sans-serif" font-size="14" lengthAdjust="spacing" textLength="164.999" x="448.43" y="217.592">webStore:WebInterface</text><line style="stroke:#5C8DB8;stroke-width:0.5;" x1="442.43" x2="619.429" y1="222.8937" y2="222.8937"/></g><g class="entity" data-entity="inventory" data-source-line="11" data-uid="ent0004" id="entity_inventory"><rect fill="#E1EBF2" height="36.2969" rx="2.5" ry="2.5" style="stroke:#5C8DB8;stroke-width:0.5;" width="204.4219" x="440.71" y="330.8869"/><text fill="#000000" font-family="sans-serif" font-size="14" lengthAdjust="spacing" textLength="190.4219" x="447.71" y="345.882">inventory:InventorySystem</text><line style="stroke:#5C8DB8;stroke-width:0.5;" x1="441.71" x2="644.1319" y1="351.1838" y2="351.1838"/></g><g class="entity" data-entity="recommender" data-source-line="12" data-uid="ent0005" id="entity_recommender"><rect fill="#E1EBF2" height="36.2969" rx="2.5" ry="2.5" style="stroke:#5C8DB8;stroke-width:0.5;" width="288.9961" x="844.43" y="202.5969"/><text fill="#000000" font-family="sans-serif" font-size="14" lengthAdjust="spacing" textLength="274.9961" x="851.43" y="217.592">recommender:RecommendationEngine</text><line style="stroke:#5C8DB8;stroke-width:0.5;" x1="845.43" x2="1132.4261" y1="222.8937" y2="222.8937"/></g><g class="entity" data-entity="payment" data-source-line="13" data-uid="ent0006" id="entity_payment"><rect fill="#E1EBF2" height="36.2969" rx="2.5" ry="2.5" style="stroke:#5C8DB8;stroke-width:0.5;" width="210.9844" x="1168.43" y="202.5969"/><text fill="#000000" font-family="sans-serif" font-size="14" lengthAdjust="spacing" textLength="196.9844" x="1175.43" y="217.592">payment:PaymentProcessor</text><line style="stroke:#5C8DB8;stroke-width:0.5;" x1="1169.43" x2="1378.4144" y1="222.8937" y2="222.8937"/></g><g class="entity" data-entity="fulfillment" data-source-line="14" data-uid="ent0007" id="entity_fulfillment"><rect fill="#E1EBF2" height="36.2969" rx="2.5" ry="2.5" style="stroke:#5C8DB8;stroke-width:0.5;" width="215.8516" x="7" y="202.5969"/><text fill="#000000" font-family="sans-serif" font-size="14" lengthAdjust="spacing" textLength="201.8516" x="14" y="217.592">fulfillment:FulfillmentSystem</text><line style="stroke:#5C8DB8;stroke-width:0.5;" x1="8" x2="221.8516" y1="222.8937" y2="222.8937"/></g><g class="entity" data-entity="cart" data-source-line="15" data-uid="ent0008" id="entity_cart"><rect fill="#E1EBF2" height="36.2969" rx="2.5" ry="2.5" style="stroke:#5C8DB8;stroke-width:0.5;" width="141.5859" x="689.13" y="330.8869"/><text fill="#000000" font-family="sans-serif" font-size="14" lengthAdjust="spacing" textLength="127.5859" x="696.13" y="345.882">cart:ShoppingCart</text><line style="stroke:#5C8DB8;stroke-width:0.5;" x1="690.13" x2="829.7159" y1="351.1838" y2="351.1838"/></g><g class="entity" data-entity="order" data-source-line="16" data-uid="ent0009" id="entity_order"><rect fill="#E1EBF2" height="36.2969" rx="2.5" ry="2.5" style="stroke:#5C8DB8;stroke-width:0.5;" width="96.3252" x="96.76" y="330.8869"/><text fill="#000000" font-family="sans-serif" font-size="14" lengthAdjust="spacing" textLength="82.3252" x="103.76" y="345.882">order:Order</text><line style="stroke:#5C8DB8;stroke-width:0.5;" x1="97.76" x2="192.0852" y1="351.1838" y2="351.1838"/></g><!--link customer to webInterface--><g class="link" data-entity-1="customer" data-entity-2="webInterface" data-source-line="19" data-uid="lnk10" id="link_customer_webInterface"><path codeLine="19" d="M491.5,64.8169 C569.37,68.0169 682.37,78.2869 709.93,110.5969 C727.81,131.5569 726.75,150.7669 709.93,172.5969 C698.35,187.6069 659.42,198.7969 620.8,206.5069" fill="none" id="customer-webInterface" style="stroke:#5C8DB8;stroke-width:1;"/></g><!--link customer to webInterface--><g class="link" data-entity-1="customer" data-entity-2="webInterface" data-source-line="29" data-uid="lnk18" id="link_customer_webInterface"><path codeLine="29" d="M356.65,80.8969 C342.94,87.8769 329.98,97.4769 321.93,110.5969 C307.5,134.0769 304.72,151.0669 321.93,172.5969 C337.14,191.6269 385.5705,202.6768 435.0405,209.7568" fill="none" id="customer-to-webInterface" style="stroke:#5C8DB8;stroke-width:1;"/><polygon fill="#5C8DB8" points="440.98,210.6069,432.6375,205.3722,436.0304,209.8985,431.5041,213.2915,440.98,210.6069" style="stroke:#5C8DB8;stroke-width:1;"/><text fill="#000000" font-family="sans-serif" font-size="13" lengthAdjust="spacing" textLength="138.1821" x="322.93" y="123.6638">1: browseCollection()</text><text fill="#000000" font-family="sans-serif" font-size="13" lengthAdjust="spacing" textLength="137.1221" x="323.46" y="138.7966">5: selectPublication()</text><text fill="#000000" font-family="sans-serif" font-size="13" lengthAdjust="spacing" textLength="94.7769" x="344.6326" y="153.9294">9: addToCart()</text><text fill="#000000" font-family="sans-serif" font-size="13" lengthAdjust="spacing" textLength="94.5483" x="344.7469" y="169.0622">11: checkout()</text></g><!--reverse link customer to webInterface--><g class="link" data-entity-1="customer" data-entity-2="webInterface" data-source-line="34" data-uid="lnk26" id="link_customer_webInterface"><path codeLine="34" d="M441.1865,84.9052 C450.8065,93.2752 457.33,99.8669 465.93,110.5969 C485.85,135.4669 485.58,145.2469 501.93,172.5969 C507.84,182.4869 514.58,193.4669 520.08,202.3369" fill="none" id="customer-backto-webInterface" style="stroke:#5C8DB8;stroke-width:1;"/><polygon fill="#5C8DB8" points="436.66,80.9669,440.8242,89.8921,440.4321,84.2488,446.0753,83.8567,436.66,80.9669" style="stroke:#5C8DB8;stroke-width:1;"/><text fill="#000000" font-family="sans-serif" font-size="13" lengthAdjust="spacing" textLength="137.3887" x="535.668" y="131.1638">4: displayCollection()</text><text fill="#000000" font-family="sans-serif" font-size="13" lengthAdjust="spacing" textLength="194.6763" x="507.0242" y="146.2966">8: displayRecommendations()</text><text fill="#000000" font-family="sans-serif" font-size="13" lengthAdjust="spacing" textLength="202.8647" x="502.93" y="161.4294">16: displayOrderConfirmation()</text></g><!--link webInterface to inventory--><g class="link" data-entity-1="webInterface" data-entity-2="inventory" data-source-line="20" data-uid="lnk11" id="link_webInterface_inventory"><path codeLine="20" d="M611.1,239.2669 C625.62,246.1169 638.98,255.6369 647.93,268.8869 C655.88,280.6769 655.65,288.9469 647.93,300.8869 C639.4,314.0569 626.23,323.5869 612.07,330.4669" fill="none" id="webInterface-inventory" style="stroke:#5C8DB8;stroke-width:1;"/></g><!--link webInterface to inventory--><g class="link" data-entity-1="webInterface" data-entity-2="inventory" data-source-line="30" data-uid="lnk19" id="link_webInterface_inventory"><path codeLine="30" d="M441.1,232.3169 C383.83,242.8469 325.46,263.1169 354.93,300.8869 C366.31,315.4769 396.7361,325.0623 434.4561,332.5923" fill="none" id="webInterface-to-inventory" style="stroke:#5C8DB8;stroke-width:1;"/><polygon fill="#5C8DB8" points="440.34,333.7669,432.2972,328.0824,435.4367,332.788,430.7311,335.9276,440.34,333.7669" style="stroke:#5C8DB8;stroke-width:1;"/><text fill="#000000" font-family="sans-serif" font-size="13" lengthAdjust="spacing" textLength="142.9111" x="356.022" y="281.9538">2: getAvailableTitles()</text><text fill="#000000" font-family="sans-serif" font-size="13" lengthAdjust="spacing" textLength="143.0952" x="355.93" y="297.0866">14: updateInventory()</text></g><!--reverse link webInterface to inventory--><g class="link" data-entity-1="webInterface" data-entity-2="inventory" data-source-line="31" data-uid="lnk21" id="link_webInterface_inventory"><path codeLine="31" d="M531.8823,245.3707 C532.6123,261.4407 533.7,279.8069 535.93,300.8869 C536.97,310.7669 538.57,321.7469 539.98,330.6169" fill="none" id="webInterface-backto-inventory" style="stroke:#5C8DB8;stroke-width:1;"/><polygon fill="#5C8DB8" points="531.61,239.3769,528.0225,248.5491,531.8369,244.3717,536.0143,248.1861,531.61,239.3769" style="stroke:#5C8DB8;stroke-width:1;"/><text fill="#000000" font-family="sans-serif" font-size="13" lengthAdjust="spacing" textLength="102.2227" x="536.93" y="289.4538">3: returnTitles()</text></g><!--link webInterface to recommender--><g class="link" data-entity-1="webInterface" data-entity-2="recommender" data-source-line="21" data-uid="lnk12" id="link_webInterface_recommender"><path codeLine="21" d="M620.82,202.6469 C626.43,201.8969 631.99,201.2469 637.43,200.7369 C721.51,192.9169 743.14,195.5469 827.43,200.7369 C833.63,201.1269 839.96,201.5869 846.35,202.1169" fill="none" id="webInterface-recommender" style="stroke:#5C8DB8;stroke-width:1;"/></g><!--link webInterface to recommender--><g class="link" data-entity-1="webInterface" data-entity-2="recommender" data-source-line="32" data-uid="lnk22" id="link_webInterface_recommender"><path codeLine="32" d="M577.46,239.3469 C596.23,245.9169 618.29,252.4769 638.93,255.7369 C679.97,262.2269 784.6,260.1269 825.93,255.7369 C856.44,252.5069 883.7742,247.2983 912.1942,240.7283" fill="none" id="webInterface-to-recommender" style="stroke:#5C8DB8;stroke-width:1;"/><polygon fill="#5C8DB8" points="918.04,239.3769,908.3703,237.5068,913.1685,240.5031,910.1722,245.3012,918.04,239.3769" style="stroke:#5C8DB8;stroke-width:1;"/><text fill="#000000" font-family="sans-serif" font-size="13" lengthAdjust="spacing" textLength="169.8633" x="647.5408" y="236.8038">6: getRecommendations()</text><text fill="#000000" font-family="sans-serif" font-size="13" lengthAdjust="spacing" textLength="185.085" x="639.93" y="251.9366">17: updateCustomerProfile()</text></g><!--reverse link webInterface to recommender--><g class="link" data-entity-1="webInterface" data-entity-2="recommender" data-source-line="33" data-uid="lnk24" id="link_webInterface_recommender"><path codeLine="33" d="M626.87,220.7369 C690.43,220.7369 771,220.7369 844.21,220.7369" fill="none" id="webInterface-backto-recommender" style="stroke:#5C8DB8;stroke-width:1;"/><polygon fill="#5C8DB8" points="620.87,220.7369,629.87,224.7369,625.87,220.7369,629.87,216.7369,620.87,220.7369" style="stroke:#5C8DB8;stroke-width:1;"/><text fill="#000000" font-family="sans-serif" font-size="13" lengthAdjust="spacing" textLength="188.7793" x="638.43" y="213.8038">7: returnRecommendations()</text></g><!--link webInterface to payment--><g class="link" data-entity-1="webInterface" data-entity-2="payment" data-source-line="22" data-uid="lnk13" id="link_webInterface_payment"><path codeLine="22" d="M578.58,202.2369 C681.45,164.9269 931.37,88.5969 1133.43,141.5969 C1178.11,153.3169 1223.56,182.8069 1250.23,202.2869" fill="none" id="webInterface-payment" style="stroke:#5C8DB8;stroke-width:1;"/></g><!--link webInterface to payment--><g class="link" data-entity-1="webInterface" data-entity-2="payment" data-source-line="36" data-uid="lnk28" id="link_webInterface_payment"><path codeLine="36" d="M584.91,202.1569 C677.03,172.8169 870.49,121.5169 1033.93,146.2869 C1103.59,156.8469 1175.274,181.5424 1222.844,199.9424" fill="none" id="webInterface-to-payment" style="stroke:#5C8DB8;stroke-width:1;"/><polygon fill="#5C8DB8" points="1228.44,202.1069,1221.4891,195.1295,1223.7767,200.3031,1218.603,202.5908,1228.44,202.1069" style="stroke:#5C8DB8;stroke-width:1;"/><text fill="#000000" font-family="sans-serif" font-size="13" lengthAdjust="spacing" textLength="142.9365" x="890.93" y="146.1638">12: processPayment()</text></g><!--link webInterface to fulfillment--><g class="link" data-entity-1="webInterface" data-entity-2="fulfillment" data-source-line="23" data-uid="lnk14" id="link_webInterface_fulfillment"><path codeLine="23" d="M441.18,222.6969 C417.56,223.1269 392.11,223.5269 368.57,223.7369 C320.9,224.1869 268.19,223.7169 223.23,223.0269" fill="none" id="webInterface-fulfillment" style="stroke:#5C8DB8;stroke-width:1;"/></g><!--reverse link fulfillment to webInterface--><g class="link" data-entity-1="fulfillment" data-entity-2="webInterface" data-source-line="38" data-uid="lnk31" id="link_fulfillment_webInterface"><path codeLine="38" d="M229.14,220.7369 C296.91,220.7369 377.2,220.7369 441.16,220.7369" fill="none" id="fulfillment-backto-webInterface" style="stroke:#5C8DB8;stroke-width:1;"/><polygon fill="#5C8DB8" points="223.14,220.7369,232.14,224.7369,228.14,220.7369,232.14,216.7369,223.14,220.7369" style="stroke:#5C8DB8;stroke-width:1;"/><text fill="#000000" font-family="sans-serif" font-size="13" lengthAdjust="spacing" textLength="182.6602" x="241.14" y="213.8038">15: createFulfillmentOrder()</text></g><!--link webInterface to cart--><g class="link" data-entity-1="webInterface" data-entity-2="cart" data-source-line="24" data-uid="lnk15" id="link_webInterface_cart"><path codeLine="24" d="M606.29,239.3669 C629.55,246.5769 654.63,256.2669 675.93,268.8869 C703.85,285.4369 730.07,312.7369 745.56,330.5569" fill="none" id="webInterface-cart" style="stroke:#5C8DB8;stroke-width:1;"/></g><!--link webInterface to cart--><g class="link" data-entity-1="webInterface" data-entity-2="cart" data-source-line="35" data-uid="lnk27" id="link_webInterface_cart"><path codeLine="35" d="M620.8,227.9669 C655.12,234.2069 692.74,246.1869 720.93,268.8869 C740.37,284.5569 749.2479,306.5775 754.3079,324.7175" fill="none" id="webInterface-to-cart" style="stroke:#5C8DB8;stroke-width:1;"/><polygon fill="#5C8DB8" points="755.92,330.4969,757.3548,320.7531,754.5766,325.6807,749.6489,322.9026,755.92,330.4969" style="stroke:#5C8DB8;stroke-width:1;"/><text fill="#000000" font-family="sans-serif" font-size="13" lengthAdjust="spacing" textLength="89.2607" x="743.93" y="289.4538">10: addItem()</text></g><!--link webInterface to order--><g class="link" data-entity-1="webInterface" data-entity-2="order" data-source-line="25" data-uid="lnk16" id="link_webInterface_order"><path codeLine="25" d="M441.13,222.3169 C346.8,224.7969 206.71,234.3969 166.93,268.8869 C149.25,284.2069 145.19,312.3869 144.56,330.6569" fill="none" id="webInterface-order" style="stroke:#5C8DB8;stroke-width:1;"/></g><!--link webInterface to order--><g class="link" data-entity-1="webInterface" data-entity-2="order" data-source-line="37" data-uid="lnk29" id="link_webInterface_order"><path codeLine="37" d="M441.14,229.4069 C364.78,237.0369 261.83,250.3069 224.93,268.8869 C196.13,283.3869 174.8447,307.2955 160.7747,325.8555" fill="none" id="webInterface-to-order" style="stroke:#5C8DB8;stroke-width:1;"/><polygon fill="#5C8DB8" points="157.15,330.6369,165.7746,325.8812,160.1706,326.6524,159.3994,321.0483,157.15,330.6369" style="stroke:#5C8DB8;stroke-width:1;"/><text fill="#000000" font-family="sans-serif" font-size="13" lengthAdjust="spacing" textLength="113.9214" x="225.93" y="289.4538">13: createOrder()</text></g><!--link order to fulfillment--><g class="link" data-entity-1="order" data-entity-2="fulfillment" data-source-line="26" data-uid="lnk17" id="link_order_fulfillment"><path codeLine="26" d="M136.65,330.4769 C132.86,321.7569 128.61,310.9569 125.93,300.8869 C120.39,280.1169 117.52,255.4769 116.12,239.2769" fill="none" id="order-fulfillment" style="stroke:#5C8DB8;stroke-width:1;"/></g><!--reverse link customer to fulfillment--><g class="link" data-entity-1="customer" data-entity-2="fulfillment" data-source-line="39" data-uid="lnk33" id="link_customer_fulfillment"><path codeLine="39" d="M332.1748,70.496 C291.7348,76.486 248.6,87.3969 209.93,110.5969 C171.36,133.7269 140.28,177.8769 125.07,202.3369" fill="none" id="customer-backto-fulfillment" style="stroke:#5C8DB8;stroke-width:1;"/><polygon fill="#5C8DB8" points="338.11,69.6169,328.621,66.9787,333.164,70.3495,329.7932,74.8924,338.11,69.6169" style="stroke:#5C8DB8;stroke-width:1;"/><text fill="#000000" font-family="sans-serif" font-size="13" lengthAdjust="spacing" textLength="91.6665" x="210.93" y="146.1638">18: shipItem()</text></g><!--SRC=[TLJ1Rjim3BtxAuJkiErWOEcMDjDXG9jkG0v3YwL0Bxl8DcrhiIL3aXi4m_vzb6GfYfFwO4la8_NuI5dlk1YOOZtvcn5yPF47IdFFobsZv2YgjUoa8kzW0KLzdIAaga1DtcMvgegLyzuf9VUdvdzPPhZfW6mFsa1F7a3pHf1xANVQI0Ka9slPzwFW9JDS2lB0MOECiimVHQxA4O4zABgU5bU4QHAi4RQ7OciJqXSeDiA0gba93hfF317EnIi8n1_e9gmyGnSIlH6le4IQ8B1k-Yki7UFlek72dvI0Ok303cWnzCb_dvGiGMlfgvYS4LoFNSsxpWNyEAuJPWdYg11JXcvREGnSD6lSU8Lm4I6kOVJHlftJxRFiFOelX4Lu88h5JKiwBdOw2nAJF3_LCDrOvr6jkISLPEuBjS_jQOLpdwjfRlIrkFSy7WlyYMgp1h1aGKmBPxKfthGc_tPI8Q5aGKc1mwm1nxb3PR3H7px-5ajADDZzqrXqqyXQ-rTAM5KzIwk-tIymlcoXtCaHzpFAbTmBF37AXiTTKzA0kNjbl6D51y_socYNw0ibuu2J1d5ECTynD1-7S_AVAIflHYL2dXc1K7FI7eowSHnEXzjpk0qSmXN4AKQD0HEdAV8EwWjItWOsPwbdj5mfiJEKOEaLrqF73gTDM4Nx9R8tqVle_rAYvggVEdMv4tQiRCy_kIvkyAwzATaqjHQDFHlyRPxkzblf_MXY1FQbL80wEcPdy4c-P81jq3849J-449z2p-HRe4wwvOElvpy0]--></g></svg>