<svg xmlns="http://www.w3.org/2000/svg" xmlns:xlink="http://www.w3.org/1999/xlink" contentStyleType="text/css" data-diagram-type="DESCRIPTION" height="518px" preserveAspectRatio="none" style="width:1555px;height:518px;background:#FFFFFF;" version="1.1" viewBox="0 0 1555 518" width="1555px" zoomAndPan="magnify"><title>System Design Bookstore - Data Flow Diagram</title><defs/><g><g class="title" data-source-line="13"><text fill="#000000" font-family="sans-serif" font-size="14" font-weight="bold" lengthAdjust="spacing" textLength="368.8193" x="586.3219" y="22.9951">System Design Bookstore - Data Flow Diagram</text></g><!--entity customer--><g class="entity" data-entity="customer" data-source-line="16" data-uid="ent0002" id="entity_customer"><ellipse cx="704.722" cy="55.2969" fill="#E1EBF2" rx="12" ry="12" style="stroke:#5C8DB8;stroke-width:0.5;"/><line style="stroke:#5C8DB8;stroke-width:0.5;" x1="692.722" x2="716.722" y1="69.2969" y2="69.2969"/><text fill="#000000" font-family="sans-serif" font-size="14" lengthAdjust="spacing" textLength="68.0039" x="670.72" y="84.292">Customer</text></g><!--entity browse--><g class="entity" data-entity="browse" data-source-line="19" data-uid="ent0003" id="entity_browse"><polygon fill="#F1F1F1" points="151.1,164.5869,250.348,164.5869,260.348,199.0322,250.348,233.4775,151.1,233.4775,161.1,199.0322" style="stroke:#181818;stroke-width:0.5;"/><text fill="#000000" font-family="sans-serif" font-size="14" lengthAdjust="spacing" textLength="22.2646" x="171.1" y="187.582">1.0</text><text fill="#000000" font-family="sans-serif" font-size="14" lengthAdjust="spacing" textLength="51.2832" x="171.1" y="203.8789">Browse</text><text fill="#000000" font-family="sans-serif" font-size="14" lengthAdjust="spacing" textLength="69.248" x="171.1" y="220.1757">Collection</text></g><!--entity order--><g class="entity" data-entity="order" data-source-line="20" data-uid="ent0004" id="entity_order"><polygon fill="#F1F1F1" points="957.89,164.5869,1041.5521,164.5869,1051.5521,199.0322,1041.5521,233.4775,957.89,233.4775,967.89,199.0322" style="stroke:#181818;stroke-width:0.5;"/><text fill="#000000" font-family="sans-serif" font-size="14" lengthAdjust="spacing" textLength="22.2646" x="977.89" y="187.582">2.0</text><text fill="#000000" font-family="sans-serif" font-size="14" lengthAdjust="spacing" textLength="53.6621" x="977.89" y="203.8789">Process</text><text fill="#000000" font-family="sans-serif" font-size="14" lengthAdjust="spacing" textLength="40.0313" x="977.89" y="220.1757">Order</text></g><!--entity payment--><g class="entity" data-entity="payment" data-source-line="21" data-uid="ent0005" id="entity_payment"><polygon fill="#F1F1F1" points="696.76,310.4769,788.6799,310.4769,798.6799,344.9222,788.6799,379.3675,696.76,379.3675,706.76,344.9222" style="stroke:#181818;stroke-width:0.5;"/><text fill="#000000" font-family="sans-serif" font-size="14" lengthAdjust="spacing" textLength="22.2646" x="716.76" y="333.472">3.0</text><text fill="#000000" font-family="sans-serif" font-size="14" lengthAdjust="spacing" textLength="49.3691" x="716.76" y="349.7689">Handle</text><text fill="#000000" font-family="sans-serif" font-size="14" lengthAdjust="spacing" textLength="61.9199" x="716.76" y="366.0657">Payment</text></g><!--entity fulfillment--><g class="entity" data-entity="fulfillment" data-source-line="22" data-uid="ent0006" id="entity_fulfillment"><polygon fill="#F1F1F1" points="1245.71,310.4769,1349.7364,310.4769,1359.7364,344.9222,1349.7364,379.3675,1245.71,379.3675,1255.71,344.9222" style="stroke:#181818;stroke-width:0.5;"/><text fill="#000000" font-family="sans-serif" font-size="14" lengthAdjust="spacing" textLength="22.2646" x="1265.71" y="333.472">4.0</text><text fill="#000000" font-family="sans-serif" font-size="14" lengthAdjust="spacing" textLength="55.6104" x="1265.71" y="349.7689">Manage</text><text fill="#000000" font-family="sans-serif" font-size="14" lengthAdjust="spacing" textLength="74.0264" x="1265.71" y="366.0657">Fulfillment</text></g><!--entity recommend--><g class="entity" data-entity="recommend" data-source-line="23" data-uid="ent0007" id="entity_recommend"><polygon fill="#F1F1F1" points="396.25,310.4769,557.1924,310.4769,567.1924,344.9222,557.1924,379.3675,396.25,379.3675,406.25,344.9222" style="stroke:#181818;stroke-width:0.5;"/><text fill="#000000" font-family="sans-serif" font-size="14" lengthAdjust="spacing" textLength="22.2646" x="416.25" y="333.472">5.0</text><text fill="#000000" font-family="sans-serif" font-size="14" lengthAdjust="spacing" textLength="65.3857" x="416.25" y="349.7689">Generate</text><text fill="#000000" font-family="sans-serif" font-size="14" lengthAdjust="spacing" textLength="130.9424" x="416.25" y="366.0657">Recommendations</text></g><!--entity catalog--><g class="entity" data-entity="catalog" data-source-line="26" data-uid="ent0008" id="entity_catalog"><path d="M33.77,332.2769 C33.77,322.2769 104.7261,322.2769 104.7261,322.2769 C104.7261,322.2769 175.6821,322.2769 175.6821,332.2769 L175.6821,357.5738 C175.6821,367.5738 104.7261,367.5738 104.7261,367.5738 C104.7261,367.5738 33.77,367.5738 33.77,357.5738 L33.77,332.2769" fill="#E1EBF2" style="stroke:#5C8DB8;stroke-width:0.5;"/><path d="M33.77,332.2769 C33.77,342.2769 104.7261,342.2769 104.7261,342.2769 C104.7261,342.2769 175.6821,342.2769 175.6821,332.2769" fill="none" style="stroke:#5C8DB8;stroke-width:0.5;"/><text fill="#000000" font-family="sans-serif" font-size="14" lengthAdjust="spacing" textLength="121.9121" x="43.77" y="359.272">D1: Book Catalog</text></g><!--entity customerDB--><g class="entity" data-entity="customerDB" data-source-line="27" data-uid="ent0009" id="entity_customerDB"><path d="M659.36,186.3869 C659.36,176.3869 736.7282,176.3869 736.7282,176.3869 C736.7282,176.3869 814.0963,176.3869 814.0963,186.3869 L814.0963,211.6838 C814.0963,221.6838 736.7282,221.6838 736.7282,221.6838 C736.7282,221.6838 659.36,221.6838 659.36,211.6838 L659.36,186.3869" fill="#E1EBF2" style="stroke:#5C8DB8;stroke-width:0.5;"/><path d="M659.36,186.3869 C659.36,196.3869 736.7282,196.3869 736.7282,196.3869 C736.7282,196.3869 814.0963,196.3869 814.0963,186.3869" fill="none" style="stroke:#5C8DB8;stroke-width:0.5;"/><text fill="#000000" font-family="sans-serif" font-size="14" lengthAdjust="spacing" textLength="134.7363" x="669.36" y="213.382">D2: Customer Data</text></g><!--entity inventory--><g class="entity" data-entity="inventory" data-source-line="28" data-uid="ent0010" id="entity_inventory"><path d="M1214.86,466.3669 C1214.86,456.3669 1272.7218,456.3669 1272.7218,456.3669 C1272.7218,456.3669 1330.5836,456.3669 1330.5836,466.3669 L1330.5836,491.6638 C1330.5836,501.6638 1272.7218,501.6638 1272.7218,501.6638 C1272.7218,501.6638 1214.86,501.6638 1214.86,491.6638 L1214.86,466.3669" fill="#E1EBF2" style="stroke:#5C8DB8;stroke-width:0.5;"/><path d="M1214.86,466.3669 C1214.86,476.3669 1272.7218,476.3669 1272.7218,476.3669 C1272.7218,476.3669 1330.5836,476.3669 1330.5836,466.3669" fill="none" style="stroke:#5C8DB8;stroke-width:0.5;"/><text fill="#000000" font-family="sans-serif" font-size="14" lengthAdjust="spacing" textLength="95.7236" x="1224.86" y="493.362">D3: Inventory</text></g><!--entity orderDB--><g class="entity" data-entity="orderDB" data-source-line="29" data-uid="ent0011" id="entity_orderDB"><path d="M1114.63,332.2769 C1114.63,322.2769 1162.7198,322.2769 1162.7198,322.2769 C1162.7198,322.2769 1210.8097,322.2769 1210.8097,332.2769 L1210.8097,357.5738 C1210.8097,367.5738 1162.7198,367.5738 1162.7198,367.5738 C1162.7198,367.5738 1114.63,367.5738 1114.63,357.5738 L1114.63,332.2769" fill="#E1EBF2" style="stroke:#5C8DB8;stroke-width:0.5;"/><path d="M1114.63,332.2769 C1114.63,342.2769 1162.7198,342.2769 1162.7198,342.2769 C1162.7198,342.2769 1210.8097,342.2769 1210.8097,332.2769" fill="none" style="stroke:#5C8DB8;stroke-width:0.5;"/><text fill="#000000" font-family="sans-serif" font-size="14" lengthAdjust="spacing" textLength="76.1797" x="1124.63" y="359.272">D4: Orders</text></g><!--entity paymentDB--><g class="entity" data-entity="paymentDB" data-source-line="30" data-uid="ent0012" id="entity_paymentDB"><path d="M661.84,466.3669 C661.84,456.3669 747.7223,456.3669 747.7223,456.3669 C747.7223,456.3669 833.6046,456.3669 833.6046,466.3669 L833.6046,491.6638 C833.6046,501.6638 747.7223,501.6638 747.7223,501.6638 C747.7223,501.6638 661.84,501.6638 661.84,491.6638 L661.84,466.3669" fill="#E1EBF2" style="stroke:#5C8DB8;stroke-width:0.5;"/><path d="M661.84,466.3669 C661.84,476.3669 747.7223,476.3669 747.7223,476.3669 C747.7223,476.3669 833.6046,476.3669 833.6046,466.3669" fill="none" style="stroke:#5C8DB8;stroke-width:0.5;"/><text fill="#000000" font-family="sans-serif" font-size="14" lengthAdjust="spacing" textLength="151.7646" x="671.84" y="493.362">D5: Payment Records</text></g><!--link customer to browse--><g class="link" data-entity-1="customer" data-entity-2="browse" data-source-line="33" data-uid="lnk13" id="link_customer_browse"><path d="M670.31,64.3569 C602.64,65.2569 448.43,72.5569 328.72,117.5869 C299.47,128.5969 274.8842,143.933 252.1542,160.643" fill="none" id="customer-to-browse" style="stroke:#5C8DB8;stroke-width:1;"/><polygon fill="#5C8DB8" points="247.32,164.1969,256.9406,162.0889,251.3485,161.2353,252.2021,155.6432,247.32,164.1969" style="stroke:#5C8DB8;stroke-width:1;"/><text fill="#000000" font-family="sans-serif" font-size="13" lengthAdjust="spacing" textLength="125.0742" x="329.72" y="130.6538">Book Search Query</text></g><!--link browse to customer--><g class="link" data-entity-1="browse" data-entity-2="customer" data-source-line="34" data-uid="lnk14" id="link_browse_customer"><path d="M194.51,164.1969 C191.47,148.2069 191.6,129.9569 202.72,117.5869 C234.01,82.8169 556.2733,69.2765 664.4033,65.6765" fill="none" id="browse-to-customer" style="stroke:#5C8DB8;stroke-width:1;"/><polygon fill="#5C8DB8" points="670.4,65.4769,661.2719,61.7786,665.4028,65.6432,661.5381,69.7741,670.4,65.4769" style="stroke:#5C8DB8;stroke-width:1;"/><text fill="#000000" font-family="sans-serif" font-size="13" lengthAdjust="spacing" textLength="84.0112" x="203.72" y="130.6538">Book Results</text></g><!--link browse to catalog--><g class="link" data-entity-1="browse" data-entity-2="catalog" data-source-line="35" data-uid="lnk15" id="link_browse_catalog"><path d="M150.61,202.6369 C107.72,207.9169 50.76,222.7569 21.72,263.4769 C6,285.5369 24.7428,303.7087 50.8828,318.7887" fill="none" id="browse-to-catalog" style="stroke:#5C8DB8;stroke-width:1;"/><polygon fill="#5C8DB8" points="56.08,321.7869,50.283,313.8248,51.749,319.2884,46.2854,320.7543,56.08,321.7869" style="stroke:#5C8DB8;stroke-width:1;"/><text fill="#000000" font-family="sans-serif" font-size="13" lengthAdjust="spacing" textLength="118.6123" x="22.72" y="276.5438">Request Book Info</text></g><!--link catalog to browse--><g class="link" data-entity-1="catalog" data-entity-2="browse" data-source-line="36" data-uid="lnk16" id="link_catalog_browse"><path d="M120.09,322.0269 C136.57,298.5569 159.4738,265.9285 178.5938,238.6785" fill="none" id="catalog-to-browse" style="stroke:#5C8DB8;stroke-width:1;"/><polygon fill="#5C8DB8" points="182.04,233.7669,173.5963,238.8368,179.1682,237.8599,180.1451,243.4317,182.04,233.7669" style="stroke:#5C8DB8;stroke-width:1;"/><text fill="#000000" font-family="sans-serif" font-size="13" lengthAdjust="spacing" textLength="81.5547" x="159.72" y="276.5438">Book Details</text></g><!--link customer to order--><g class="link" data-entity-1="customer" data-entity-2="order" data-source-line="37" data-uid="lnk17" id="link_customer_order"><path d="M738.93,67.6369 C801.38,74.0769 930.66,90.3669 965.72,117.5869 C980.56,129.1069 988.045,142.0625 993.965,158.4825" fill="none" id="customer-to-order" style="stroke:#5C8DB8;stroke-width:1;"/><polygon fill="#5C8DB8" points="996,164.1269,996.7104,154.3037,994.3042,159.4232,989.1846,157.017,996,164.1269" style="stroke:#5C8DB8;stroke-width:1;"/><text fill="#000000" font-family="sans-serif" font-size="13" lengthAdjust="spacing" textLength="117.0698" x="981.72" y="130.6538">Purchase Request</text></g><!--link order to customer--><g class="link" data-entity-1="order" data-entity-2="customer" data-source-line="38" data-uid="lnk18" id="link_order_customer"><path d="M957.76,183.1569 C922.28,171.3869 872.69,153.7769 830.72,134.5869 C821.47,130.3569 778.4223,106.191 744.3923,86.941" fill="none" id="order-to-customer" style="stroke:#5C8DB8;stroke-width:1;"/><polygon fill="#5C8DB8" points="739.17,83.9869,745.0341,91.8997,743.522,86.4487,748.973,84.9366,739.17,83.9869" style="stroke:#5C8DB8;stroke-width:1;"/><text fill="#000000" font-family="sans-serif" font-size="13" lengthAdjust="spacing" textLength="125.6392" x="831.72" y="130.6538">Order Confirmation</text></g><!--link order to inventory--><g class="link" data-entity-1="order" data-entity-2="inventory" data-source-line="39" data-uid="lnk19" id="link_order_inventory"><path d="M1051.85,201.5569 C1141.76,205.4769 1332.92,218.9469 1378.72,263.4769 C1431.45,314.7369 1449.41,365.7869 1407.72,426.3669 C1390.44,451.4869 1364.9897,463.019 1336.8897,469.649" fill="none" id="order-to-inventory" style="stroke:#5C8DB8;stroke-width:1;"/><polygon fill="#5C8DB8" points="1331.05,471.0269,1340.728,472.8532,1335.9164,469.8787,1338.8909,465.067,1331.05,471.0269" style="stroke:#5C8DB8;stroke-width:1;"/><text fill="#000000" font-family="sans-serif" font-size="13" lengthAdjust="spacing" textLength="115.7432" x="1431.72" y="349.4938">Check Availability</text></g><!--link inventory to order--><g class="link" data-entity-1="inventory" data-entity-2="order" data-source-line="40" data-uid="lnk20" id="link_inventory_order"><path d="M1214.6,477.3969 C1145.18,473.1469 1031.68,454.3069 977.72,379.3669 C946.82,336.4469 965.5422,278.0544 983.8322,239.2444" fill="none" id="inventory-to-order" style="stroke:#5C8DB8;stroke-width:1;"/><polygon fill="#5C8DB8" points="986.39,233.8169,978.935,240.2529,984.2585,238.3398,986.1716,243.6633,986.39,233.8169" style="stroke:#5C8DB8;stroke-width:1;"/><text fill="#000000" font-family="sans-serif" font-size="13" lengthAdjust="spacing" textLength="117.1777" x="978.72" y="349.4938">Availability Status</text></g><!--link order to orderDB--><g class="link" data-entity-1="order" data-entity-2="orderDB" data-source-line="41" data-uid="lnk21" id="link_order_orderDB"><path d="M1051.93,217.3569 C1075.48,227.8569 1103.06,243.1769 1122.72,263.4769 C1138.78,280.0569 1147.61,298.7107 1153.92,316.2607" fill="none" id="order-to-orderDB" style="stroke:#5C8DB8;stroke-width:1;"/><polygon fill="#5C8DB8" points="1155.95,321.9069,1156.669,312.0843,1154.2583,317.2018,1149.1408,314.791,1155.95,321.9069" style="stroke:#5C8DB8;stroke-width:1;"/><text fill="#000000" font-family="sans-serif" font-size="13" lengthAdjust="spacing" textLength="75.9497" x="1135.72" y="276.5438">Store Order</text></g><!--link orderDB to order--><g class="link" data-entity-1="orderDB" data-entity-2="order" data-source-line="42" data-uid="lnk22" id="link_orderDB_order"><path d="M1114.41,321.9569 C1075.97,304.3869 1028.32,282.3669 1026.72,280.4769 C1015.8,267.5269 1011.3237,255.5236 1008.5337,239.8836" fill="none" id="orderDB-to-order" style="stroke:#5C8DB8;stroke-width:1;"/><polygon fill="#5C8DB8" points="1007.48,233.9769,1005.1227,243.5395,1008.3581,238.8992,1012.9984,242.1345,1007.48,233.9769" style="stroke:#5C8DB8;stroke-width:1;"/><text fill="#000000" font-family="sans-serif" font-size="13" lengthAdjust="spacing" textLength="86.3726" x="1027.72" y="276.5438">Order Details</text></g><!--link order to payment--><g class="link" data-entity-1="order" data-entity-2="payment" data-source-line="43" data-uid="lnk23" id="link_order_payment"><path d="M957.5,211.8469 C921.56,222.1369 871.8,239.2169 832.72,263.4769 C812.35,276.1269 796.8655,289.8885 781.6055,305.7085" fill="none" id="order-to-payment" style="stroke:#5C8DB8;stroke-width:1;"/><polygon fill="#5C8DB8" points="777.44,310.0269,786.5672,306.3263,780.9113,306.4282,780.8094,300.7723,777.44,310.0269" style="stroke:#5C8DB8;stroke-width:1;"/><text fill="#000000" font-family="sans-serif" font-size="13" lengthAdjust="spacing" textLength="115.0195" x="833.72" y="276.5438">Payment Request</text></g><!--link payment to order--><g class="link" data-entity-1="payment" data-entity-2="order" data-source-line="44" data-uid="lnk24" id="link_payment_order"><path d="M706.71,310.2269 C693.47,295.3369 684.92,277.9669 696.72,263.4769 C698.8,260.9369 866.0247,227.5143 951.7747,210.5043" fill="none" id="payment-to-order" style="stroke:#5C8DB8;stroke-width:1;"/><polygon fill="#5C8DB8" points="957.66,209.3369,948.0537,207.1645,952.7556,210.3098,949.6103,215.0116,957.66,209.3369" style="stroke:#5C8DB8;stroke-width:1;"/><text fill="#000000" font-family="sans-serif" font-size="13" lengthAdjust="spacing" textLength="103.0542" x="697.72" y="276.5438">Payment Status</text></g><!--link payment to paymentDB--><g class="link" data-entity-1="payment" data-entity-2="paymentDB" data-source-line="45" data-uid="lnk25" id="link_payment_paymentDB"><path d="M747.72,379.5969 C747.72,403.5969 747.72,429.1769 747.72,450.0169" fill="none" id="payment-to-paymentDB" style="stroke:#5C8DB8;stroke-width:1;"/><polygon fill="#5C8DB8" points="747.72,456.0169,751.72,447.0169,747.72,451.0169,743.72,447.0169,747.72,456.0169" style="stroke:#5C8DB8;stroke-width:1;"/><text fill="#000000" font-family="sans-serif" font-size="13" lengthAdjust="spacing" textLength="131.4473" x="748.72" y="422.4338">Store Payment Data</text></g><!--link order to fulfillment--><g class="link" data-entity-1="order" data-entity-2="fulfillment" data-source-line="46" data-uid="lnk26" id="link_order_fulfillment"><path d="M1051.78,207.1769 C1097.17,215.5769 1166.62,232.4769 1219.72,263.4769 C1240.52,275.6169 1255.9943,289.6444 1270.8843,305.8044" fill="none" id="order-to-fulfillment" style="stroke:#5C8DB8;stroke-width:1;"/><polygon fill="#5C8DB8" points="1274.95,310.2169,1271.7931,300.8877,1271.5619,306.5398,1265.9098,306.3086,1274.95,310.2169" style="stroke:#5C8DB8;stroke-width:1;"/><text fill="#000000" font-family="sans-serif" font-size="13" lengthAdjust="spacing" textLength="126.2612" x="1243.72" y="276.5438">Fulfillment Request</text></g><!--link fulfillment to inventory--><g class="link" data-entity-1="fulfillment" data-entity-2="inventory" data-source-line="47" data-uid="lnk27" id="link_fulfillment_inventory"><path d="M1281.41,379.6369 C1276.61,388.9269 1272.2,399.2369 1269.72,409.3669 C1265.98,424.6669 1266.1316,436.4863 1267.8916,450.1163" fill="none" id="fulfillment-to-inventory" style="stroke:#5C8DB8;stroke-width:1;"/><polygon fill="#5C8DB8" points="1268.66,456.0669,1271.4745,446.6287,1268.0197,451.108,1263.5404,447.6532,1268.66,456.0669" style="stroke:#5C8DB8;stroke-width:1;"/><text fill="#000000" font-family="sans-serif" font-size="13" lengthAdjust="spacing" textLength="132.6406" x="1270.72" y="422.4338">Update Stock Levels</text></g><!--link fulfillment to customer--><g class="link" data-entity-1="fulfillment" data-entity-2="customer" data-source-line="48" data-uid="lnk28" id="link_fulfillment_customer"><path d="M1360.23,312.2169 C1377.5,298.3969 1389.36,281.2969 1378.72,263.4769 C1308.57,146.0469 1237.89,159.6369 1107.72,117.5869 C976.1,75.0669 815.7883,66.6385 745.0683,64.9685" fill="none" id="fulfillment-to-customer" style="stroke:#5C8DB8;stroke-width:1;"/><polygon fill="#5C8DB8" points="739.07,64.8269,747.9731,69.0382,744.0686,64.9449,748.1619,61.0405,739.07,64.8269" style="stroke:#5C8DB8;stroke-width:1;"/><text fill="#000000" font-family="sans-serif" font-size="13" lengthAdjust="spacing" textLength="157.5171" x="1357.72" y="203.6038">Physical/Digital Delivery</text></g><!--link browse to recommend--><g class="link" data-entity-1="browse" data-entity-2="recommend" data-source-line="49" data-uid="lnk29" id="link_browse_recommend"><path d="M241.17,233.7769 C259.15,249.5569 281.96,267.6469 304.72,280.4769 C333.02,296.4269 360.3771,307.6421 390.1971,317.7421" fill="none" id="browse-to-recommend" style="stroke:#5C8DB8;stroke-width:1;"/><polygon fill="#5C8DB8" points="395.88,319.6669,388.6389,312.9911,391.1443,318.0629,386.0725,320.5683,395.88,319.6669" style="stroke:#5C8DB8;stroke-width:1;"/><text fill="#000000" font-family="sans-serif" font-size="13" lengthAdjust="spacing" textLength="149.8682" x="305.72" y="276.5438">Current Book Selection</text></g><!--link customerDB to recommend--><g class="link" data-entity-1="customerDB" data-entity-2="recommend" data-source-line="50" data-uid="lnk30" id="link_customerDB_recommend"><path d="M668.22,222.1569 C656.39,225.9469 644.2,229.8369 632.72,233.4769 C590.11,246.9869 572.66,236.8969 536.72,263.4769 C520.4,275.5569 510.2962,288.7885 500.9762,304.9585" fill="none" id="customerDB-to-recommend" style="stroke:#5C8DB8;stroke-width:1;"/><polygon fill="#5C8DB8" points="497.98,310.1569,505.9399,304.3568,500.4768,305.8249,499.0087,300.3619,497.98,310.1569" style="stroke:#5C8DB8;stroke-width:1;"/><text fill="#000000" font-family="sans-serif" font-size="13" lengthAdjust="spacing" textLength="109.9287" x="537.72" y="276.5438">Purchase History</text></g><!--link recommend to customer--><g class="link" data-entity-1="recommend" data-entity-2="customer" data-source-line="51" data-uid="lnk31" id="link_recommend_customer"><path d="M475.75,310.2269 C470.82,271.5069 468.78,207.7669 498.72,164.5869 C539.06,106.4269 617.0361,81.9978 664.3761,71.7378" fill="none" id="recommend-to-customer" style="stroke:#5C8DB8;stroke-width:1;"/><polygon fill="#5C8DB8" points="670.24,70.4669,660.597,68.4639,665.3534,71.5259,662.2915,76.2824,670.24,70.4669" style="stroke:#5C8DB8;stroke-width:1;"/><text fill="#000000" font-family="sans-serif" font-size="13" lengthAdjust="spacing" textLength="141.4575" x="499.72" y="203.6038">Recommended Books</text></g><!--link customer to customerDB--><g class="link" data-entity-1="customer" data-entity-2="customerDB" data-source-line="52" data-uid="lnk32" id="link_customer_customerDB"><path d="M700.35,87.8569 C698.59,101.6669 697.8,119.3569 701.72,134.5869 C705.52,149.3269 710.3397,159.238 717.7497,170.938" fill="none" id="customer-to-customerDB" style="stroke:#5C8DB8;stroke-width:1;"/><polygon fill="#5C8DB8" points="720.96,176.0069,719.5238,166.2633,718.2847,171.7828,712.7653,170.5437,720.96,176.0069" style="stroke:#5C8DB8;stroke-width:1;"/><text fill="#000000" font-family="sans-serif" font-size="13" lengthAdjust="spacing" textLength="91.8823" x="702.72" y="130.6538">Customer Info</text></g><!--SRC=[XPHDSzem48Rl-XKRUkWfRVCra-7G6S2aoKpRKA27pkGYx8Le41ALR5B-VLQoPCkcRMwMzEpNkxi-At0j5CBq-_9X-GjGbQ8yihDmEvi_JgQB1UoDpj7QvZuRBKUBvUDy2WKl-OfRPCnkXTfpmtSmCaQ_JBJK1jxTvBV5wZPvdFe8OvvlDqPNgWWSNk1gVNdAQLEW-PUlMPtMsyuY-5zlMIZbRNSD-HT_ZDAM28kZBP58j6AZOAprrfRQ89nxOxYJ-WKomJVaZh7tCFrJeb5SrcKBj2mqP32fo727PW3SGXuEpYJKH6Ziqk3YmwSdDIRnBJufIajYNWgjlEdANxVifME3ZoVrw0hnd2-fnQuSTizL8SdbZ1ztD26UszVVBNdjo6zSyGsHTvLS2oaRUjsUMuiRP_455HfUaiqSSxqZWaQAahRUpiGxLx5NRk5ajAoTm45sCVG2muJUfTxKIjNV7Uvo255DxwiZQJRki5T3U507IbURe-T4F7Mmwo5uwMohNS_HpH22RE0AD8LDvICu5kP6mhAO3foVVmuzWr3U0hd9d-57XPH4U79KOnAuETfAbhQ3r6eGCSVV5Tgo9X_KMhFuTXemmv8BsSl9rqZ4hA9aQ0UYHrO_z1Boui14gxKmEz_NX6ia9N3oZFaMHWSAo5T2kfzG-vp6JH4Q1bvMDd4PEa2SdvCwFektgPywirXYwo4q1jAsrGN6buuAuIuaaY9DXvja8kpQdKHCTeFGP7EQo2dH5-xddlO5NGJIxoiUaAhfyqb3Piz7At8kFsPY8wZnf80KXzv4DLld6bCPu_o44Go_5DQkpOb5Cndtmlg5QHzxoJGRZqNzY-oEMX8ZsLmtjAy0]--></g></svg>