<svg xmlns="http://www.w3.org/2000/svg" xmlns:xlink="http://www.w3.org/1999/xlink" contentStyleType="text/css" data-diagram-type="CLASS" height="436px" preserveAspectRatio="none" style="width:1454px;height:436px;background:#FFFFFF;" version="1.1" viewBox="0 0 1454 436" width="1454px" zoomAndPan="magnify"><title>System Design Bookstore - Object Diagram</title><defs/><g><g class="title" data-source-line="7"><text fill="#000000" font-family="sans-serif" font-size="14" font-weight="bold" lengthAdjust="spacing" textLength="341.0313" x="549.6322" y="22.9951">System Design Bookstore - Object Diagram</text></g><g class="entity" data-entity="customer" data-source-line="9" data-uid="ent0002" id="entity_customer"><rect fill="#E1EBF2" height="77.1875" rx="2.5" ry="2.5" style="stroke:#5C8DB8;stroke-width:0.5;" width="223.1758" x="318.34" y="44.2969"/><text fill="#000000" font-family="sans-serif" font-size="14" lengthAdjust="spacing" textLength="102.9219" x="378.467" y="59.292">john:Customer</text><line style="stroke:#5C8DB8;stroke-width:0.5;" x1="319.34" x2="540.5158" y1="64.5938" y2="64.5938"/><text fill="#000000" font-family="sans-serif" font-size="14" lengthAdjust="spacing" textLength="157.8555" x="324.34" y="81.5889">customerId = "C1001"</text><text fill="#000000" font-family="sans-serif" font-size="14" lengthAdjust="spacing" textLength="148.8799" x="324.34" y="97.8857">name = "John Smith"</text><text fill="#000000" font-family="sans-serif" font-size="14" lengthAdjust="spacing" textLength="211.1758" x="324.34" y="114.1826">email = "john@example.com"</text></g><g class="entity" data-entity="webInterface" data-source-line="15" data-uid="ent0003" id="entity_webInterface"><rect fill="#E1EBF2" height="36.2969" rx="2.5" ry="2.5" style="stroke:#5C8DB8;stroke-width:0.5;" width="178.999" x="124.43" y="210.7769"/><text fill="#000000" font-family="sans-serif" font-size="14" lengthAdjust="spacing" textLength="164.999" x="131.43" y="225.772">webStore:WebInterface</text><line style="stroke:#5C8DB8;stroke-width:0.5;" x1="125.43" x2="302.429" y1="231.0738" y2="231.0738"/></g><g class="entity" data-entity="inventory" data-source-line="18" data-uid="ent0004" id="entity_inventory"><rect fill="#E1EBF2" height="36.2969" rx="2.5" ry="2.5" style="stroke:#5C8DB8;stroke-width:0.5;" width="204.4219" x="338.72" y="210.7769"/><text fill="#000000" font-family="sans-serif" font-size="14" lengthAdjust="spacing" textLength="190.4219" x="345.72" y="225.772">inventory:InventorySystem</text><line style="stroke:#5C8DB8;stroke-width:0.5;" x1="339.72" x2="542.1419" y1="231.0738" y2="231.0738"/></g><g class="entity" data-entity="recommender" data-source-line="21" data-uid="ent0005" id="entity_recommender"><rect fill="#E1EBF2" height="36.2969" rx="2.5" ry="2.5" style="stroke:#5C8DB8;stroke-width:0.5;" width="358.0049" x="577.93" y="210.7769"/><text fill="#000000" font-family="sans-serif" font-size="14" lengthAdjust="spacing" textLength="344.0049" x="584.93" y="225.772">recommendationEngine:RecommendationEngine</text><line style="stroke:#5C8DB8;stroke-width:0.5;" x1="578.93" x2="934.9349" y1="231.0738" y2="231.0738"/></g><g class="entity" data-entity="payment" data-source-line="24" data-uid="ent0006" id="entity_payment"><rect fill="#E1EBF2" height="36.2969" rx="2.5" ry="2.5" style="stroke:#5C8DB8;stroke-width:0.5;" width="262.7256" x="1185.57" y="210.7769"/><text fill="#000000" font-family="sans-serif" font-size="14" lengthAdjust="spacing" textLength="248.7256" x="1192.57" y="225.772">paymentService:PaymentProcessor</text><line style="stroke:#5C8DB8;stroke-width:0.5;" x1="1186.57" x2="1447.2956" y1="231.0738" y2="231.0738"/></g><g class="entity" data-entity="fulfillment" data-source-line="27" data-uid="ent0007" id="entity_fulfillment"><rect fill="#E1EBF2" height="36.2969" rx="2.5" ry="2.5" style="stroke:#5C8DB8;stroke-width:0.5;" width="215.8516" x="953.01" y="64.7369"/><text fill="#000000" font-family="sans-serif" font-size="14" lengthAdjust="spacing" textLength="201.8516" x="960.01" y="79.732">fulfillment:FulfillmentSystem</text><line style="stroke:#5C8DB8;stroke-width:0.5;" x1="954.01" x2="1167.8616" y1="85.0338" y2="85.0338"/></g><g class="entity" data-entity="book1" data-source-line="30" data-uid="ent0008" id="entity_book1"><rect fill="#E1EBF2" height="93.4844" rx="2.5" ry="2.5" style="stroke:#5C8DB8;stroke-width:0.5;" width="186.9316" x="347.47" y="336.3769"/><text fill="#000000" font-family="sans-serif" font-size="14" lengthAdjust="spacing" textLength="120.0186" x="380.9265" y="351.372">novel:Publication</text><line style="stroke:#5C8DB8;stroke-width:0.5;" x1="348.47" x2="533.4016" y1="356.6738" y2="356.6738"/><text fill="#000000" font-family="sans-serif" font-size="14" lengthAdjust="spacing" textLength="168.1162" x="353.47" y="373.6689">publicationId = "P1001"</text><text fill="#000000" font-family="sans-serif" font-size="14" lengthAdjust="spacing" textLength="174.9316" x="353.47" y="389.9657">title = "The Great Novel"</text><text fill="#000000" font-family="sans-serif" font-size="14" lengthAdjust="spacing" textLength="95.5527" x="353.47" y="406.2626">price = 19.99</text><text fill="#000000" font-family="sans-serif" font-size="14" lengthAdjust="spacing" textLength="148.1553" x="353.47" y="422.5595">format = "PHYSICAL"</text></g><g class="entity" data-entity="book2" data-source-line="37" data-uid="ent0009" id="entity_book2"><rect fill="#E1EBF2" height="93.4844" rx="2.5" ry="2.5" style="stroke:#5C8DB8;stroke-width:0.5;" width="180.1162" x="612.87" y="336.3769"/><text fill="#000000" font-family="sans-serif" font-size="14" lengthAdjust="spacing" textLength="124.5303" x="640.663" y="351.372">ebook:Publication</text><line style="stroke:#5C8DB8;stroke-width:0.5;" x1="613.87" x2="791.9862" y1="356.6738" y2="356.6738"/><text fill="#000000" font-family="sans-serif" font-size="14" lengthAdjust="spacing" textLength="168.1162" x="618.87" y="373.6689">publicationId = "P2001"</text><text fill="#000000" font-family="sans-serif" font-size="14" lengthAdjust="spacing" textLength="159.2295" x="618.87" y="389.9657">title = "Digital Stories"</text><text fill="#000000" font-family="sans-serif" font-size="14" lengthAdjust="spacing" textLength="86.6455" x="618.87" y="406.2626">price = 9.99</text><text fill="#000000" font-family="sans-serif" font-size="14" lengthAdjust="spacing" textLength="136.2813" x="618.87" y="422.5595">format = "DIGITAL"</text></g><g class="entity" data-entity="cart" data-source-line="44" data-uid="ent0010" id="entity_cart"><rect fill="#E1EBF2" height="44.5938" rx="2.5" ry="2.5" style="stroke:#5C8DB8;stroke-width:0.5;" width="173.8652" x="7" y="360.8169"/><text fill="#000000" font-family="sans-serif" font-size="14" lengthAdjust="spacing" textLength="159.8652" x="14" y="375.812">johnCart:ShoppingCart</text><line style="stroke:#5C8DB8;stroke-width:0.5;" x1="8" x2="179.8652" y1="381.1138" y2="381.1138"/><text fill="#000000" font-family="sans-serif" font-size="14" lengthAdjust="spacing" textLength="92.7227" x="13" y="398.1089">total = 29.98</text></g><g class="entity" data-entity="order" data-source-line="48" data-uid="ent0011" id="entity_order"><rect fill="#E1EBF2" height="60.8906" rx="2.5" ry="2.5" style="stroke:#5C8DB8;stroke-width:0.5;" width="179.5625" x="971.15" y="198.4869"/><text fill="#000000" font-family="sans-serif" font-size="14" lengthAdjust="spacing" textLength="109.0469" x="1006.4078" y="213.482">order123:Order</text><line style="stroke:#5C8DB8;stroke-width:0.5;" x1="972.15" x2="1149.7125" y1="218.7838" y2="218.7838"/><text fill="#000000" font-family="sans-serif" font-size="14" lengthAdjust="spacing" textLength="130.751" x="977.15" y="235.7789">orderId = "O1001"</text><text fill="#000000" font-family="sans-serif" font-size="14" lengthAdjust="spacing" textLength="167.5625" x="977.15" y="252.0757">status = "PROCESSING"</text></g><g class="entity" data-entity="paymentDetails" data-source-line="53" data-uid="ent0012" id="entity_paymentDetails"><rect fill="#E1EBF2" height="60.8906" rx="2.5" ry="2.5" style="stroke:#5C8DB8;stroke-width:0.5;" width="259.0508" x="1123.41" y="352.6669"/><text fill="#000000" font-family="sans-serif" font-size="14" lengthAdjust="spacing" textLength="204.2578" x="1150.8065" y="367.662">payment123:PaymentDetails</text><line style="stroke:#5C8DB8;stroke-width:0.5;" x1="1124.41" x2="1381.4608" y1="372.9638" y2="372.9638"/><text fill="#000000" font-family="sans-serif" font-size="14" lengthAdjust="spacing" textLength="114.7275" x="1129.41" y="389.9589">amount = 29.98</text><text fill="#000000" font-family="sans-serif" font-size="14" lengthAdjust="spacing" textLength="247.0508" x="1129.41" y="406.2557">paymentMethod = "CREDIT_CARD"</text></g><!--link customer to cart--><g class="link" data-entity-1="customer" data-entity-2="cart" data-source-line="59" data-uid="lnk13" id="link_customer_cart"><path codeLine="59" d="M318.22,104.5469 C223.96,124.5269 99.74,157.7169 69.93,198.4869 C34.26,247.2769 63.92,323.4369 82.2,360.4569" fill="none" id="customer-cart" style="stroke:#5C8DB8;stroke-width:1;"/><polygon fill="#000000" points="71.5402,232.6688,79.8328,228.0122,75.512,224.0273,71.5402,232.6688" style="stroke:#000000;stroke-width:1;"/><text fill="#000000" font-family="sans-serif" font-size="13" lengthAdjust="spacing" textLength="22.9785" x="83.93" y="233.4938">has</text></g><!--link customer to order--><g class="link" data-entity-1="customer" data-entity-2="order" data-source-line="60" data-uid="lnk14" id="link_customer_order"><path codeLine="60" d="M542.01,106.5969 C648.38,128.5669 812.55,163.5969 953.93,198.4869 C959.45,199.8469 965.12,201.2869 970.83,202.7669" fill="none" id="customer-order" style="stroke:#5C8DB8;stroke-width:1;"/><polygon fill="#000000" points="835.8088,161.1474,827.6261,156.3004,826.3398,162.0358,835.8088,161.1474" style="stroke:#000000;stroke-width:1;"/><text fill="#000000" font-family="sans-serif" font-size="13" lengthAdjust="spacing" textLength="43.2275" x="839.93" y="164.5538">placed</text></g><!--link webInterface to cart--><g class="link" data-entity-1="webInterface" data-entity-2="cart" data-source-line="61" data-uid="lnk15" id="link_webInterface_cart"><path codeLine="61" d="M200.17,247.3869 C178.13,275.3369 134.97,330.0669 111,360.4669" fill="none" id="webInterface-cart" style="stroke:#5C8DB8;stroke-width:1;"/><polygon fill="#000000" points="166.834,301.8694,174.7425,296.5867,170.127,292.9472,166.834,301.8694" style="stroke:#000000;stroke-width:1;"/><text fill="#000000" font-family="sans-serif" font-size="13" lengthAdjust="spacing" textLength="59.8584" x="178.93" y="302.4438">manages</text></g><!--link webInterface to book1--><g class="link" data-entity-1="webInterface" data-entity-2="book1" data-source-line="62" data-uid="lnk16" id="link_webInterface_book1"><path codeLine="62" d="M239.97,247.3869 C272,268.8569 327.6,306.1269 372.2,336.0369" fill="none" id="webInterface-book1" style="stroke:#5C8DB8;stroke-width:1;"/><polygon fill="#000000" points="337.083,300.7276,331.2067,293.2496,327.9336,298.1318,337.083,300.7276" style="stroke:#000000;stroke-width:1;"/><text fill="#000000" font-family="sans-serif" font-size="13" lengthAdjust="spacing" textLength="52.9331" x="341.93" y="302.4438">displays</text></g><!--link webInterface to book2--><g class="link" data-entity-1="webInterface" data-entity-2="book2" data-source-line="63" data-uid="lnk17" id="link_webInterface_book2"><path codeLine="63" d="M273.65,247.5169 C288.98,251.7069 305.51,255.9569 320.93,259.3769 C399.26,276.7069 422.39,265.3469 498.93,289.3769 C515.82,294.6669 518.87,298.9569 534.93,306.3769 C560.06,317.9669 587.39,330.3769 612.56,341.7269" fill="none" id="webInterface-book2" style="stroke:#5C8DB8;stroke-width:1;"/><polygon fill="#000000" points="544.7473,299.2824,536.8198,294.0283,535.2456,299.6915,544.7473,299.2824" style="stroke:#000000;stroke-width:1;"/><text fill="#000000" font-family="sans-serif" font-size="13" lengthAdjust="spacing" textLength="52.9331" x="548.93" y="302.4438">displays</text></g><!--link inventory to book1--><g class="link" data-entity-1="inventory" data-entity-2="book1" data-source-line="64" data-uid="lnk18" id="link_inventory_book1"><path codeLine="64" d="M440.93,247.3869 C440.93,268.8569 440.93,306.1269 440.93,336.0369" fill="none" id="inventory-book1" style="stroke:#5C8DB8;stroke-width:1;"/><polygon fill="#000000" points="445.93,302.9433,448.8689,293.8982,442.9911,293.8982,445.93,302.9433" style="stroke:#000000;stroke-width:1;"/><text fill="#000000" font-family="sans-serif" font-size="13" lengthAdjust="spacing" textLength="39.8569" x="454.93" y="302.4438">tracks</text></g><!--link inventory to book2--><g class="link" data-entity-1="inventory" data-entity-2="book2" data-source-line="65" data-uid="lnk19" id="link_inventory_book2"><path codeLine="65" d="M512.78,247.4669 C544.08,257.0169 580.31,270.7569 609.93,289.3769 C630.01,301.9869 649.12,319.6669 664.74,336.1969" fill="none" id="inventory-book2" style="stroke:#5C8DB8;stroke-width:1;"/><polygon fill="#000000" points="643.2478,300.4645,636.9187,293.3656,633.9549,298.4415,643.2478,300.4645" style="stroke:#000000;stroke-width:1;"/><text fill="#000000" font-family="sans-serif" font-size="13" lengthAdjust="spacing" textLength="39.8569" x="647.93" y="302.4438">tracks</text></g><!--link recommender to book2--><g class="link" data-entity-1="recommender" data-entity-2="book2" data-source-line="66" data-uid="lnk20" id="link_recommender_book2"><path codeLine="66" d="M750.74,247.3869 C743.12,268.8569 729.89,306.1269 719.28,336.0369" fill="none" id="recommender-book2" style="stroke:#5C8DB8;stroke-width:1;"/><polygon fill="#000000" points="738.2578,302.6554,744.0525,295.114,738.5132,293.1482,738.2578,302.6554" style="stroke:#000000;stroke-width:1;"/><text fill="#000000" font-family="sans-serif" font-size="13" lengthAdjust="spacing" textLength="151.1313" x="748.93" y="302.4438">recommends for book1</text></g><!--link order to book1--><g class="link" data-entity-1="order" data-entity-2="book1" data-source-line="67" data-uid="lnk21" id="link_order_book1"><path codeLine="67" d="M1002.29,259.7269 C960.6,280.8669 911.52,305.6269 908.93,306.3769 C774.23,345.1969 732.55,309.6269 594.93,336.3769 C575.22,340.2069 554.41,345.4969 534.69,351.1269" fill="none" id="order-book1" style="stroke:#5C8DB8;stroke-width:1;"/><polygon fill="#000000" points="941.0229,298.9025,950.4637,300.0516,949.3362,294.2829,941.0229,298.9025" style="stroke:#000000;stroke-width:1;"/><text fill="#000000" font-family="sans-serif" font-size="13" lengthAdjust="spacing" textLength="55.0278" x="954.93" y="302.4438">contains</text></g><!--link order to book2--><g class="link" data-entity-1="order" data-entity-2="book2" data-source-line="68" data-uid="lnk22" id="link_order_book2"><path codeLine="68" d="M1052.54,259.6869 C1046.52,275.7769 1036.81,294.6769 1021.93,306.3769 C956.7,357.6369 862.35,375.0769 793.17,380.5969" fill="none" id="order-book2" style="stroke:#5C8DB8;stroke-width:1;"/><polygon fill="#000000" points="1037.3982,300.0559,1046.838,298.8979,1044.3545,293.5705,1037.3982,300.0559" style="stroke:#000000;stroke-width:1;"/><text fill="#000000" font-family="sans-serif" font-size="13" lengthAdjust="spacing" textLength="55.0278" x="1050.93" y="302.4438">contains</text></g><!--link order to paymentDetails--><g class="link" data-entity-1="order" data-entity-2="paymentDetails" data-source-line="69" data-uid="lnk23" id="link_order_paymentDetails"><path codeLine="69" d="M1100.4,259.6269 C1112.8,269.0569 1126.49,279.5769 1138.93,289.3769 C1165.29,310.1269 1194.65,334.0369 1216.97,352.3769" fill="none" id="order-paymentDetails" style="stroke:#5C8DB8;stroke-width:1;"/><polygon fill="#000000" points="1165.8426,301.0564,1160.5945,293.1249,1156.9348,297.7245,1165.8426,301.0564" style="stroke:#000000;stroke-width:1;"/><text fill="#000000" font-family="sans-serif" font-size="13" lengthAdjust="spacing" textLength="53.8726" x="1170.93" y="302.4438">includes</text></g><!--link fulfillment to order--><g class="link" data-entity-1="fulfillment" data-entity-2="order" data-source-line="70" data-uid="lnk24" id="link_fulfillment_order"><path codeLine="70" d="M1060.93,101.2669 C1060.93,125.2769 1060.93,168.9669 1060.93,198.2269" fill="none" id="fulfillment-order" style="stroke:#5C8DB8;stroke-width:1;"/><polygon fill="#000000" points="1065.93,165.0533,1068.8689,156.0082,1062.9911,156.0082,1065.93,165.0533" style="stroke:#000000;stroke-width:1;"/><text fill="#000000" font-family="sans-serif" font-size="13" lengthAdjust="spacing" textLength="65.0127" x="1074.93" y="164.5538">processes</text></g><!--link payment to paymentDetails--><g class="link" data-entity-1="payment" data-entity-2="paymentDetails" data-source-line="71" data-uid="lnk25" id="link_payment_paymentDetails"><path codeLine="71" d="M1309.59,247.3869 C1298.82,272.9969 1278.6,321.0869 1265.45,352.3469" fill="none" id="payment-paymentDetails" style="stroke:#5C8DB8;stroke-width:1;"/><polygon fill="#000000" points="1292.9917,302.5523,1299.2072,295.3538,1293.789,293.0752,1292.9917,302.5523" style="stroke:#000000;stroke-width:1;"/><text fill="#000000" font-family="sans-serif" font-size="13" lengthAdjust="spacing" textLength="66.4917" x="1303.93" y="302.4438">processed</text></g><!--SRC=[TLJVRvim47xdhx2oXpsrQfWcjKYjra7NCMrD52fDUveCNC2jiP7jj8kg_UyxsoGn6U79_hxxyTtv3ltCH4yLxOWidw0ov2qY-7scrNEZv4RKgUHIaNSmXt8TUqwg6jI0Vwmkw_BIuRTAoTSn_3UA33CSIB7L1ZgIWMQDm0ZoMHkfW9oHXK-RCTgWYYWQPCoUP2kIT8Dc7QWPePfKmsMGkBlcDRacitH-SJ6VEKBG3Ypq3IEGecEczJXqb75BsD2Vu0_jUWxdbUncLkSkxokKXPMM_8Go5mRKcbRWyhy606e8V9Xu0O5EsoJVdNp1pc_FZfqKOEeEH4qDa-9ED4n0ife0NP2zjQi_2DFJBSAc0FN2AaYM_hfKiWAjfU_SO3DsN6_ucd5kYUJBuHm83op6haA-04-McvApoWbrvYM-wdnudFx0-VTP7jx7JmHYZosGUmNKa0SRqBEzmZAGdL-TNrqvP2rLXpOsoDTVHPxUVXyz6DYyasBYasBY_yLah666Sc8Vdu4UYvdGakNt-UEH53jOALKcALhPzqmqzk9d5m-36YDjcciIOz3BqDkjrJp-a2pimRavQF1pPwz_SMYcDjHij2jgjKZlYY9_k9zDp8UDEyn61WONGOUJCK139jhXufkzHDS8R_S3J2lzlgtkilpnTtgxobowzsG5tBLOjwpNqNvPpyvyyGbfCT_DYF3b9QJdk58ragCLEtXsLD06z8I1dxc4r4nZaEqfatXiSjZ888HH-C-RPEEG3HSnuFUmjZCo1Bs9V8L1baeARBNGnrnyWZjwe0J_9XNVrAuPuNw6tVIxxqnscpyLQMU7ZVy7]--></g></svg>