<svg xmlns="http://www.w3.org/2000/svg" xmlns:xlink="http://www.w3.org/1999/xlink" contentStyleType="text/css" data-diagram-type="SEQUENCE" height="994px" preserveAspectRatio="none" style="width:1106px;height:994px;background:#FFFFFF;" version="1.1" viewBox="0 0 1106 994" width="1106px" zoomAndPan="magnify"><title>System Design Bookstore -  Sequence Diagram</title><defs/><g><text fill="#000000" font-family="sans-serif" font-size="14" font-weight="bold" lengthAdjust="spacing" textLength="371.5195" x="368.4165" y="27.9951">System Design Bookstore -  Sequence Diagram</text><rect fill="none" height="369.2031" style="stroke:#000000;stroke-width:1.5;" width="1089.3525" x="10" y="456.0547"/><rect fill="none" height="235.8672" style="stroke:#000000;stroke-width:1.5;" width="1069.3525" x="20" y="509.3203"/><g><title>Customer</title><rect fill="#000000" fill-opacity="0.00000" height="794.9297" width="8" x="63.002" y="118.5938"/><line style="stroke:#5C8DB8;stroke-width:0.5;stroke-dasharray:5.0,5.0;" x1="67" x2="67" y1="118.5938" y2="913.5234"/></g><g><title>Web Interface</title><rect fill="#000000" fill-opacity="0.00000" height="794.9297" width="8" x="264.6919" y="118.5938"/><line style="stroke:#5C8DB8;stroke-width:0.5;stroke-dasharray:5.0,5.0;" x1="268.4561" x2="268.4561" y1="118.5938" y2="913.5234"/></g><g><title>Inventory System</title><rect fill="#000000" fill-opacity="0.00000" height="794.9297" width="8" x="444.9839" y="118.5938"/><line style="stroke:#5C8DB8;stroke-width:0.5;stroke-dasharray:5.0,5.0;" x1="448.2212" x2="448.2212" y1="118.5938" y2="913.5234"/></g><g><title>Recommendation Engine</title><rect fill="#000000" fill-opacity="0.00000" height="794.9297" width="8" x="618.7866" y="118.5938"/><line style="stroke:#5C8DB8;stroke-width:0.5;stroke-dasharray:5.0,5.0;" x1="622.7466" x2="622.7466" y1="118.5938" y2="913.5234"/></g><g><title>Payment Processor</title><rect fill="#000000" fill-opacity="0.00000" height="794.9297" width="8" x="846.4932" y="118.5938"/><line style="stroke:#5C8DB8;stroke-width:0.5;stroke-dasharray:5.0,5.0;" x1="850.3164" x2="850.3164" y1="118.5938" y2="913.5234"/></g><g><title>Fulfillment System</title><rect fill="#000000" fill-opacity="0.00000" height="794.9297" width="8" x="1003.0112" y="118.5938"/><line style="stroke:#5C8DB8;stroke-width:0.5;stroke-dasharray:5.0,5.0;" x1="1006.6699" x2="1006.6699" y1="118.5938" y2="913.5234"/></g><g class="participant participant-head" data-participant="Customer"><text fill="#000000" font-family="sans-serif" font-size="14" lengthAdjust="spacing" textLength="68.0039" x="30" y="115.292">Customer</text><ellipse cx="67.002" cy="50.7969" fill="#E2E2F0" rx="8" ry="8" style="stroke:#5C8DB8;stroke-width:0.5;"/><path d="M67.002,58.7969 L67.002,85.7969 M54.002,66.7969 L80.002,66.7969 M67.002,85.7969 L54.002,100.7969 M67.002,85.7969 L80.002,100.7969" fill="none" style="stroke:#5C8DB8;stroke-width:0.5;"/></g><g class="participant participant-tail" data-participant="Customer"><text fill="#000000" font-family="sans-serif" font-size="14" lengthAdjust="spacing" textLength="68.0039" x="30" y="925.5186">Customer</text><ellipse cx="67.002" cy="937.3203" fill="#E2E2F0" rx="8" ry="8" style="stroke:#5C8DB8;stroke-width:0.5;"/><path d="M67.002,945.3203 L67.002,972.3203 M54.002,953.3203 L80.002,953.3203 M67.002,972.3203 L54.002,987.3203 M67.002,972.3203 L80.002,987.3203" fill="none" style="stroke:#5C8DB8;stroke-width:0.5;"/></g><g class="participant participant-head" data-participant="UI"><rect fill="#E1EBF2" height="30.2969" rx="2.5" ry="2.5" style="stroke:#5C8DB8;stroke-width:0.5;" width="112.4717" x="212.4561" y="87.2969"/><text fill="#000000" font-family="sans-serif" font-size="14" lengthAdjust="spacing" textLength="98.4717" x="219.4561" y="107.292">Web Interface</text></g><g class="participant participant-tail" data-participant="UI"><rect fill="#E1EBF2" height="30.2969" rx="2.5" ry="2.5" style="stroke:#5C8DB8;stroke-width:0.5;" width="112.4717" x="212.4561" y="912.5234"/><text fill="#000000" font-family="sans-serif" font-size="14" lengthAdjust="spacing" textLength="98.4717" x="219.4561" y="932.5186">Web Interface</text></g><g class="participant participant-head" data-participant="Inventory"><rect fill="#E1EBF2" height="30.2969" rx="2.5" ry="2.5" style="stroke:#5C8DB8;stroke-width:0.5;" width="137.5254" x="380.2212" y="87.2969"/><text fill="#000000" font-family="sans-serif" font-size="14" lengthAdjust="spacing" textLength="123.5254" x="387.2212" y="107.292">Inventory System</text></g><g class="participant participant-tail" data-participant="Inventory"><rect fill="#E1EBF2" height="30.2969" rx="2.5" ry="2.5" style="stroke:#5C8DB8;stroke-width:0.5;" width="137.5254" x="380.2212" y="912.5234"/><text fill="#000000" font-family="sans-serif" font-size="14" lengthAdjust="spacing" textLength="123.5254" x="387.2212" y="932.5186">Inventory System</text></g><g class="participant participant-head" data-participant="RecEngine"><rect fill="#E1EBF2" height="30.2969" rx="2.5" ry="2.5" style="stroke:#5C8DB8;stroke-width:0.5;" width="190.0801" x="527.7466" y="87.2969"/><text fill="#000000" font-family="sans-serif" font-size="14" lengthAdjust="spacing" textLength="176.0801" x="534.7466" y="107.292">Recommendation Engine</text></g><g class="participant participant-tail" data-participant="RecEngine"><rect fill="#E1EBF2" height="30.2969" rx="2.5" ry="2.5" style="stroke:#5C8DB8;stroke-width:0.5;" width="190.0801" x="527.7466" y="912.5234"/><text fill="#000000" font-family="sans-serif" font-size="14" lengthAdjust="spacing" textLength="176.0801" x="534.7466" y="932.5186">Recommendation Engine</text></g><g class="participant participant-head" data-participant="Payment"><rect fill="#E1EBF2" height="30.2969" rx="2.5" ry="2.5" style="stroke:#5C8DB8;stroke-width:0.5;" width="148.3535" x="776.3164" y="87.2969"/><text fill="#000000" font-family="sans-serif" font-size="14" lengthAdjust="spacing" textLength="134.3535" x="783.3164" y="107.292">Payment Processor</text></g><g class="participant participant-tail" data-participant="Payment"><rect fill="#E1EBF2" height="30.2969" rx="2.5" ry="2.5" style="stroke:#5C8DB8;stroke-width:0.5;" width="148.3535" x="776.3164" y="912.5234"/><text fill="#000000" font-family="sans-serif" font-size="14" lengthAdjust="spacing" textLength="134.3535" x="783.3164" y="932.5186">Payment Processor</text></g><g class="participant participant-head" data-participant="Fulfillment"><rect fill="#E1EBF2" height="30.2969" rx="2.5" ry="2.5" style="stroke:#5C8DB8;stroke-width:0.5;" width="144.6826" x="934.6699" y="87.2969"/><text fill="#000000" font-family="sans-serif" font-size="14" lengthAdjust="spacing" textLength="130.6826" x="941.6699" y="107.292">Fulfillment System</text></g><g class="participant participant-tail" data-participant="Fulfillment"><rect fill="#E1EBF2" height="30.2969" rx="2.5" ry="2.5" style="stroke:#5C8DB8;stroke-width:0.5;" width="144.6826" x="934.6699" y="912.5234"/><text fill="#000000" font-family="sans-serif" font-size="14" lengthAdjust="spacing" textLength="130.6826" x="941.6699" y="932.5186">Fulfillment System</text></g><g class="message" data-participant-1="Customer" data-participant-2="UI"><polygon fill="#5C8DB8" points="256.6919,145.7266,266.6919,149.7266,256.6919,153.7266,260.6919,149.7266" style="stroke:#5C8DB8;stroke-width:1;"/><line style="stroke:#5C8DB8;stroke-width:1;" x1="67.002" x2="262.6919" y1="149.7266" y2="149.7266"/><text fill="#000000" font-family="sans-serif" font-size="13" lengthAdjust="spacing" textLength="116.0542" x="74.002" y="144.6606">Browse Collection</text></g><g class="message" data-participant-1="UI" data-participant-2="Inventory"><polygon fill="#5C8DB8" points="436.9839,174.8594,446.9839,178.8594,436.9839,182.8594,440.9839,178.8594" style="stroke:#5C8DB8;stroke-width:1;"/><line style="stroke:#5C8DB8;stroke-width:1;" x1="268.6919" x2="442.9839" y1="178.8594" y2="178.8594"/><text fill="#000000" font-family="sans-serif" font-size="13" lengthAdjust="spacing" textLength="156.292" x="275.6919" y="173.7935">Request Available Titles</text></g><g class="message" data-participant-1="Inventory" data-participant-2="UI"><polygon fill="#5C8DB8" points="279.6919,203.9922,269.6919,207.9922,279.6919,211.9922,275.6919,207.9922" style="stroke:#5C8DB8;stroke-width:1;"/><line style="stroke:#5C8DB8;stroke-width:1;stroke-dasharray:2.0,2.0;" x1="273.6919" x2="447.9839" y1="207.9922" y2="207.9922"/><text fill="#000000" font-family="sans-serif" font-size="13" lengthAdjust="spacing" textLength="146.853" x="285.6919" y="202.9263">Return Available Titles</text></g><g class="message" data-participant-1="UI" data-participant-2="Customer"><polygon fill="#5C8DB8" points="78.002,233.125,68.002,237.125,78.002,241.125,74.002,237.125" style="stroke:#5C8DB8;stroke-width:1;"/><line style="stroke:#5C8DB8;stroke-width:1;stroke-dasharray:2.0,2.0;" x1="72.002" x2="267.6919" y1="237.125" y2="237.125"/><text fill="#000000" font-family="sans-serif" font-size="13" lengthAdjust="spacing" textLength="116.3525" x="84.002" y="232.0591">Display Collection</text></g><g class="message" data-participant-1="Customer" data-participant-2="UI"><polygon fill="#5C8DB8" points="256.6919,262.2578,266.6919,266.2578,256.6919,270.2578,260.6919,266.2578" style="stroke:#5C8DB8;stroke-width:1;"/><line style="stroke:#5C8DB8;stroke-width:1;" x1="67.002" x2="262.6919" y1="266.2578" y2="266.2578"/><text fill="#000000" font-family="sans-serif" font-size="13" lengthAdjust="spacing" textLength="115.8066" x="74.002" y="261.1919">Select Publication</text></g><g class="message" data-participant-1="UI" data-participant-2="RecEngine"><polygon fill="#5C8DB8" points="610.7866,291.3906,620.7866,295.3906,610.7866,299.3906,614.7866,295.3906" style="stroke:#5C8DB8;stroke-width:1;"/><line style="stroke:#5C8DB8;stroke-width:1;" x1="268.6919" x2="616.7866" y1="295.3906" y2="295.3906"/><text fill="#000000" font-family="sans-serif" font-size="13" lengthAdjust="spacing" textLength="179.1118" x="275.6919" y="290.3247">Request Recommendations</text></g><g class="message" data-participant-1="RecEngine" data-participant-2="UI"><polygon fill="#5C8DB8" points="279.6919,320.5234,269.6919,324.5234,279.6919,328.5234,275.6919,324.5234" style="stroke:#5C8DB8;stroke-width:1;"/><line style="stroke:#5C8DB8;stroke-width:1;stroke-dasharray:2.0,2.0;" x1="273.6919" x2="621.7866" y1="324.5234" y2="324.5234"/><text fill="#000000" font-family="sans-serif" font-size="13" lengthAdjust="spacing" textLength="137.2046" x="285.6919" y="319.4575">Return Related Titles</text></g><g class="message" data-participant-1="UI" data-participant-2="Customer"><polygon fill="#5C8DB8" points="78.002,349.6563,68.002,353.6563,78.002,357.6563,74.002,353.6563" style="stroke:#5C8DB8;stroke-width:1;"/><line style="stroke:#5C8DB8;stroke-width:1;stroke-dasharray:2.0,2.0;" x1="72.002" x2="267.6919" y1="353.6563" y2="353.6563"/><text fill="#000000" font-family="sans-serif" font-size="13" lengthAdjust="spacing" textLength="173.6401" x="84.002" y="348.5903">Display Recommendations</text></g><g class="message" data-participant-1="Customer" data-participant-2="UI"><polygon fill="#5C8DB8" points="256.6919,378.7891,266.6919,382.7891,256.6919,386.7891,260.6919,382.7891" style="stroke:#5C8DB8;stroke-width:1;"/><line style="stroke:#5C8DB8;stroke-width:1;" x1="67.002" x2="262.6919" y1="382.7891" y2="382.7891"/><text fill="#000000" font-family="sans-serif" font-size="13" lengthAdjust="spacing" textLength="74.1978" x="74.002" y="377.7231">Add to Cart</text></g><g class="message" data-participant-1="Customer" data-participant-2="UI"><polygon fill="#5C8DB8" points="256.6919,407.9219,266.6919,411.9219,256.6919,415.9219,260.6919,411.9219" style="stroke:#5C8DB8;stroke-width:1;"/><line style="stroke:#5C8DB8;stroke-width:1;" x1="67.002" x2="262.6919" y1="411.9219" y2="411.9219"/><text fill="#000000" font-family="sans-serif" font-size="13" lengthAdjust="spacing" textLength="135.1289" x="74.002" y="406.856">Proceed to Checkout</text></g><g class="message" data-participant-1="UI" data-participant-2="Payment"><polygon fill="#5C8DB8" points="838.4932,437.0547,848.4932,441.0547,838.4932,445.0547,842.4932,441.0547" style="stroke:#5C8DB8;stroke-width:1;"/><line style="stroke:#5C8DB8;stroke-width:1;" x1="268.6919" x2="844.4932" y1="441.0547" y2="441.0547"/><text fill="#000000" font-family="sans-serif" font-size="13" lengthAdjust="spacing" textLength="111.4585" x="275.6919" y="435.9888">Process Payment</text></g><path d="M10,456.0547 L74.4429,456.0547 L74.4429,463.1875 L64.4429,473.1875 L10,473.1875 L10,456.0547" fill="#EEEEEE" style="stroke:#000000;stroke-width:1.5;"/><rect fill="none" height="369.2031" style="stroke:#000000;stroke-width:1.5;" width="1089.3525" x="10" y="456.0547"/><text fill="#000000" font-family="sans-serif" font-size="13" font-weight="bold" lengthAdjust="spacing" textLength="19.4429" x="25" y="469.1216">alt</text><text fill="#000000" font-family="sans-serif" font-size="11" font-weight="bold" lengthAdjust="spacing" textLength="134.2881" x="89.4429" y="468.2651">[Payment Successful]</text><g class="message" data-participant-1="Payment" data-participant-2="UI"><polygon fill="#5C8DB8" points="279.6919,490.3203,269.6919,494.3203,279.6919,498.3203,275.6919,494.3203" style="stroke:#5C8DB8;stroke-width:1;"/><line style="stroke:#5C8DB8;stroke-width:1;stroke-dasharray:2.0,2.0;" x1="273.6919" x2="849.4932" y1="494.3203" y2="494.3203"/><text fill="#000000" font-family="sans-serif" font-size="13" lengthAdjust="spacing" textLength="113.0962" x="285.6919" y="489.2544">Confirm Payment</text></g><path d="M20,509.3203 L84.4429,509.3203 L84.4429,516.4531 L74.4429,526.4531 L20,526.4531 L20,509.3203" fill="#EEEEEE" style="stroke:#000000;stroke-width:1.5;"/><rect fill="none" height="235.8672" style="stroke:#000000;stroke-width:1.5;" width="1069.3525" x="20" y="509.3203"/><text fill="#000000" font-family="sans-serif" font-size="13" font-weight="bold" lengthAdjust="spacing" textLength="19.4429" x="35" y="522.3872">alt</text><text fill="#000000" font-family="sans-serif" font-size="11" font-weight="bold" lengthAdjust="spacing" textLength="93.2529" x="99.4429" y="521.5308">[Physical Item]</text><g class="message" data-participant-1="UI" data-participant-2="Inventory"><polygon fill="#5C8DB8" points="436.9839,543.5859,446.9839,547.5859,436.9839,551.5859,440.9839,547.5859" style="stroke:#5C8DB8;stroke-width:1;"/><line style="stroke:#5C8DB8;stroke-width:1;" x1="268.6919" x2="442.9839" y1="547.5859" y2="547.5859"/><text fill="#000000" font-family="sans-serif" font-size="13" lengthAdjust="spacing" textLength="113.3057" x="275.6919" y="542.52">Update Inventory</text></g><g class="message" data-participant-1="UI" data-participant-2="Fulfillment"><polygon fill="#5C8DB8" points="995.0112,572.7188,1005.0112,576.7188,995.0112,580.7188,999.0112,576.7188" style="stroke:#5C8DB8;stroke-width:1;"/><line style="stroke:#5C8DB8;stroke-width:1;" x1="268.6919" x2="1001.0112" y1="576.7188" y2="576.7188"/><text fill="#000000" font-family="sans-serif" font-size="13" lengthAdjust="spacing" textLength="157.6567" x="275.6919" y="571.6528">Create Fulfillment Order</text></g><g class="message" data-participant-1="Fulfillment" data-participant-2="UI"><polygon fill="#5C8DB8" points="279.6919,601.8516,269.6919,605.8516,279.6919,609.8516,275.6919,605.8516" style="stroke:#5C8DB8;stroke-width:1;"/><line style="stroke:#5C8DB8;stroke-width:1;stroke-dasharray:2.0,2.0;" x1="273.6919" x2="1006.0112" y1="605.8516" y2="605.8516"/><text fill="#000000" font-family="sans-serif" font-size="13" lengthAdjust="spacing" textLength="152.1914" x="285.6919" y="600.7856">Confirm Order Creation</text></g><g class="message" data-participant-1="UI" data-participant-2="Customer"><polygon fill="#5C8DB8" points="78.002,630.9844,68.002,634.9844,78.002,638.9844,74.002,634.9844" style="stroke:#5C8DB8;stroke-width:1;"/><line style="stroke:#5C8DB8;stroke-width:1;stroke-dasharray:2.0,2.0;" x1="72.002" x2="267.6919" y1="634.9844" y2="634.9844"/><text fill="#000000" font-family="sans-serif" font-size="13" lengthAdjust="spacing" textLength="177.6899" x="84.002" y="629.9185">Display Order Confirmation</text></g><g class="message" data-participant-1="Fulfillment" data-participant-2="Customer"><polygon fill="#5C8DB8" points="78.002,660.1172,68.002,664.1172,78.002,668.1172,74.002,664.1172" style="stroke:#5C8DB8;stroke-width:1;"/><line style="stroke:#5C8DB8;stroke-width:1;" x1="72.002" x2="1006.0112" y1="664.1172" y2="664.1172"/><text fill="#000000" font-family="sans-serif" font-size="13" lengthAdjust="spacing" textLength="62.0801" x="84.002" y="659.0513">Ship Item</text></g><line style="stroke:#000000;stroke-width:1;stroke-dasharray:2.0,2.0;" x1="20" x2="1089.3525" y1="673.1172" y2="673.1172"/><text fill="#000000" font-family="sans-serif" font-size="11" font-weight="bold" lengthAdjust="spacing" textLength="83.1553" x="25" y="683.3276">[Digital Item]</text><g class="message" data-participant-1="UI" data-participant-2="Inventory"><polygon fill="#5C8DB8" points="436.9839,704.0547,446.9839,708.0547,436.9839,712.0547,440.9839,708.0547" style="stroke:#5C8DB8;stroke-width:1;"/><line style="stroke:#5C8DB8;stroke-width:1;" x1="268.6919" x2="442.9839" y1="708.0547" y2="708.0547"/><text fill="#000000" font-family="sans-serif" font-size="13" lengthAdjust="spacing" textLength="142.2383" x="275.6919" y="702.9888">Update Digital Access</text></g><g class="message" data-participant-1="UI" data-participant-2="Customer"><polygon fill="#5C8DB8" points="78.002,733.1875,68.002,737.1875,78.002,741.1875,74.002,737.1875" style="stroke:#5C8DB8;stroke-width:1;"/><line style="stroke:#5C8DB8;stroke-width:1;stroke-dasharray:2.0,2.0;" x1="72.002" x2="267.6919" y1="737.1875" y2="737.1875"/><text fill="#000000" font-family="sans-serif" font-size="13" lengthAdjust="spacing" textLength="171.7739" x="84.002" y="732.1216">Provide Immediate Access</text></g><line style="stroke:#000000;stroke-width:1;stroke-dasharray:2.0,2.0;" x1="10" x2="1099.3525" y1="753.1875" y2="753.1875"/><text fill="#000000" font-family="sans-serif" font-size="11" font-weight="bold" lengthAdjust="spacing" textLength="106.3638" x="15" y="763.3979">[Payment Failed]</text><g class="message" data-participant-1="Payment" data-participant-2="UI"><polygon fill="#5C8DB8" points="279.6919,784.125,269.6919,788.125,279.6919,792.125,275.6919,788.125" style="stroke:#5C8DB8;stroke-width:1;"/><line style="stroke:#5C8DB8;stroke-width:1;stroke-dasharray:2.0,2.0;" x1="273.6919" x2="849.4932" y1="788.125" y2="788.125"/><text fill="#000000" font-family="sans-serif" font-size="13" lengthAdjust="spacing" textLength="80.2852" x="285.6919" y="783.0591">Return Error</text></g><g class="message" data-participant-1="UI" data-participant-2="Customer"><polygon fill="#5C8DB8" points="78.002,813.2578,68.002,817.2578,78.002,821.2578,74.002,817.2578" style="stroke:#5C8DB8;stroke-width:1;"/><line style="stroke:#5C8DB8;stroke-width:1;stroke-dasharray:2.0,2.0;" x1="72.002" x2="267.6919" y1="817.2578" y2="817.2578"/><text fill="#000000" font-family="sans-serif" font-size="13" lengthAdjust="spacing" textLength="145.8818" x="84.002" y="812.1919">Display Payment Error</text></g><g class="message" data-participant-1="UI" data-participant-2="RecEngine"><polygon fill="#5C8DB8" points="610.7866,849.3906,620.7866,853.3906,610.7866,857.3906,614.7866,853.3906" style="stroke:#5C8DB8;stroke-width:1;"/><line style="stroke:#5C8DB8;stroke-width:1;" x1="268.6919" x2="616.7866" y1="853.3906" y2="853.3906"/><text fill="#000000" font-family="sans-serif" font-size="13" lengthAdjust="spacing" textLength="159.4277" x="275.6919" y="848.3247">Update Customer Profile</text></g><g class="message" data-participant-1="RecEngine" data-participant-2="RecEngine"><line style="stroke:#5C8DB8;stroke-width:1;" x1="622.7866" x2="664.7866" y1="882.5234" y2="882.5234"/><line style="stroke:#5C8DB8;stroke-width:1;" x1="664.7866" x2="664.7866" y1="882.5234" y2="895.5234"/><line style="stroke:#5C8DB8;stroke-width:1;" x1="623.7866" x2="664.7866" y1="895.5234" y2="895.5234"/><polygon fill="#5C8DB8" points="633.7866,891.5234,623.7866,895.5234,633.7866,899.5234,629.7866,895.5234" style="stroke:#5C8DB8;stroke-width:1;"/><text fill="#000000" font-family="sans-serif" font-size="13" lengthAdjust="spacing" textLength="213.7065" x="629.7866" y="877.4575">Refine Future Recommendations</text></g><!--SRC=[ZLHHYzim37xthn2tvpviC3ZwC6XxLmWShBGhUtOTfJLrxCnsEihOVvzi9wdJNDdb8H3fa_JfanHtbhhXbjVWy5UBMY3yOK3FmbhpUsMKiV3fgtWk3y_9BBonIsDBj5FdcwpmJMfyvDzmwwMG3TV-8n0kpaThMbrsCFoCX-eB-ykObruXxAxEOmqlwEHHmzAOioDo23E0NT_CY-H7weun7eZ3gYL8ZPOrjphmz1CFK6YFjk82du0xs1TZHA4lg2d1jIiQGODnZDsYC7MDkkHU6Wsl-aYIn03ofAznm8PV2UvXOur0vuoDuCuwXgvRLKcb8ZnZafaPwtk4sJVgOmvB6gH3814LYa29xOlW6-ZFYHZ9vJmiBbmgVY1jVmI57RlrFUkoRT6tLa-H8IT1-k9pKjurYb_pkXDgEmmksBG79GLFc4HkaEf6RgohOmFadjiM5VTO_fVPVS89lKLPWZUmeWbCV75OcFmd56VJ-evwDxXvFyzXaemhtt_0hXN1MRMgs_jaxbjP6Lr9Mm-n0HDVCSVfwaWl1GKjGBI6PpBLVKETORQcOsIsD5JFOi3c-_KzNEWGatlkIKPaIX56c9TvL_WEdwB7CQCoUUpk99jRlwXSkEsZz1zLeGSlekoFETBGBh8arMWpIXaYimZQbJI9MB-VsPfE0SjtnzXjv2lzJ9EK3pNf8nCq59fUGjVAi8h4bSJ2_1BkBgSAndLB9F1-tVy1]--></g></svg>