<svg xmlns="http://www.w3.org/2000/svg" xmlns:xlink="http://www.w3.org/1999/xlink" contentStyleType="text/css" data-diagram-type="DESCRIPTION" height="394px" preserveAspectRatio="none" style="width:2420px;height:394px;background:#FFFFFF;" version="1.1" viewBox="0 0 2420 394" width="2420px" zoomAndPan="magnify"><title>System Design Bookstore - Use Case Diagram</title><defs/><g><g class="title" data-source-line="11"><text fill="#000000" font-family="sans-serif" font-size="14" font-weight="bold" lengthAdjust="spacing" textLength="361.4434" x="1022.6586" y="22.9951">System Design Bookstore - Use Case Diagram</text></g><!--cluster System Design Bookstore System--><g class="cluster" data-entity="System Design Bookstore System" data-source-line="18" data-uid="ent0006" id="cluster_System Design Bookstore System"><rect fill="none" height="222.49" rx="2.5" ry="2.5" style="stroke:#181818;stroke-width:1;" width="2359" x="7" y="166.0969"/><text fill="#000000" font-family="sans-serif" font-size="14" font-weight="bold" lengthAdjust="spacing" textLength="265.7539" x="1053.623" y="181.092">System Design Bookstore System</text></g><!--entity UC1--><g class="entity" data-entity="UC1" data-source-line="19" data-uid="ent0007" id="entity_UC1"><ellipse cx="1128.999" cy="223.6767" fill="#F5F5F5" rx="77.599" ry="17.9198" style="stroke:#5C8DB8;stroke-width:0.5;"/><text fill="#000000" font-family="sans-serif" font-size="14" lengthAdjust="spacing" textLength="124.9814" x="1066.5083" y="228.3251">Browse Collection</text></g><!--entity UC2--><g class="entity" data-entity="UC2" data-source-line="20" data-uid="ent0008" id="entity_UC2"><ellipse cx="115.9994" cy="223.6748" fill="#F5F5F5" rx="93.1894" ry="21.0379" style="stroke:#5C8DB8;stroke-width:0.5;"/><text fill="#000000" font-family="sans-serif" font-size="14" lengthAdjust="spacing" textLength="160.9248" x="35.537" y="228.3232">Search for Publications</text></g><!--entity UC3--><g class="entity" data-entity="UC3" data-source-line="21" data-uid="ent0009" id="entity_UC3"><ellipse cx="314.9951" cy="223.6799" fill="#F5F5F5" rx="70.6651" ry="16.533" style="stroke:#5C8DB8;stroke-width:0.5;"/><text fill="#000000" font-family="sans-serif" font-size="14" lengthAdjust="spacing" textLength="108.0488" x="260.9707" y="228.3283">Create Account</text></g><!--entity UC4--><g class="entity" data-entity="UC4" data-source-line="22" data-uid="ent0010" id="entity_UC4"><ellipse cx="491.0023" cy="223.6753" fill="#F5F5F5" rx="70.5423" ry="16.5085" style="stroke:#5C8DB8;stroke-width:0.5;"/><text fill="#000000" font-family="sans-serif" font-size="14" lengthAdjust="spacing" textLength="107.7412" x="437.1317" y="228.3238">Purchase Items</text></g><!--entity UC5--><g class="entity" data-entity="UC5" data-source-line="23" data-uid="ent0011" id="entity_UC5"><ellipse cx="687.9966" cy="223.6782" fill="#F5F5F5" rx="91.9566" ry="20.7913" style="stroke:#5C8DB8;stroke-width:0.5;"/><text fill="#000000" font-family="sans-serif" font-size="14" lengthAdjust="spacing" textLength="158.1563" x="608.9185" y="228.3266">Access Digital Content</text></g><!--entity UC6--><g class="entity" data-entity="UC6" data-source-line="24" data-uid="ent0012" id="entity_UC6"><ellipse cx="916.0026" cy="223.6734" fill="#F5F5F5" rx="100.8826" ry="22.5765" style="stroke:#5C8DB8;stroke-width:0.5;"/><text fill="#000000" font-family="sans-serif" font-size="14" lengthAdjust="spacing" textLength="178.001" x="827.0022" y="228.3218">Participate in Community</text></g><!--entity UC7--><g class="entity" data-entity="UC7" data-source-line="25" data-uid="ent0013" id="entity_UC7"><ellipse cx="1319.9969" cy="223.6803" fill="#F5F5F5" rx="78.4169" ry="18.0834" style="stroke:#5C8DB8;stroke-width:0.5;"/><text fill="#000000" font-family="sans-serif" font-size="14" lengthAdjust="spacing" textLength="126.9297" x="1256.5321" y="228.3287">Manage Inventory</text></g><!--entity UC8--><g class="entity" data-entity="UC8" data-source-line="26" data-uid="ent0014" id="entity_UC8"><ellipse cx="1405.9973" cy="347.9123" fill="#F5F5F5" rx="69.6273" ry="16.3255" style="stroke:#5C8DB8;stroke-width:0.5;"/><text fill="#000000" font-family="sans-serif" font-size="14" lengthAdjust="spacing" textLength="105.4375" x="1353.2785" y="352.5608">Process Orders</text></g><!--entity UC9--><g class="entity" data-entity="UC9" data-source-line="27" data-uid="ent0015" id="entity_UC9"><ellipse cx="1504.0022" cy="223.6793" fill="#F5F5F5" rx="71.0122" ry="16.6024" style="stroke:#5C8DB8;stroke-width:0.5;"/><text fill="#000000" font-family="sans-serif" font-size="14" lengthAdjust="spacing" textLength="108.917" x="1449.5437" y="228.3277">Update Catalog</text></g><!--entity UC10--><g class="entity" data-entity="UC10" data-source-line="28" data-uid="ent0016" id="entity_UC10"><ellipse cx="1682.9962" cy="223.6761" fill="#F5F5F5" rx="73.3962" ry="17.0792" style="stroke:#5C8DB8;stroke-width:0.5;"/><text fill="#000000" font-family="sans-serif" font-size="14" lengthAdjust="spacing" textLength="114.8164" x="1625.588" y="228.3246">Organize Events</text></g><!--entity UC11--><g class="entity" data-entity="UC11" data-source-line="29" data-uid="ent0017" id="entity_UC11"><ellipse cx="315.0016" cy="347.9152" fill="#F5F5F5" rx="111.3416" ry="24.6683" style="stroke:#5C8DB8;stroke-width:0.5;"/><text fill="#000000" font-family="sans-serif" font-size="14" lengthAdjust="spacing" textLength="200.7783" x="214.6125" y="352.5636">Generate Recommendations</text></g><!--entity UC12--><g class="entity" data-entity="UC12" data-source-line="30" data-uid="ent0018" id="entity_UC12"><ellipse cx="2276.0017" cy="223.6772" fill="#F5F5F5" rx="74.2517" ry="17.2503" style="stroke:#5C8DB8;stroke-width:0.5;"/><text fill="#000000" font-family="sans-serif" font-size="14" lengthAdjust="spacing" textLength="116.9082" x="2217.5476" y="228.3257">Maintain System</text></g><!--entity UC13--><g class="entity" data-entity="UC13" data-source-line="31" data-uid="ent0019" id="entity_UC13"><ellipse cx="1878.997" cy="223.6763" fill="#F5F5F5" rx="87.947" ry="19.9894" style="stroke:#5C8DB8;stroke-width:0.5;"/><text fill="#000000" font-family="sans-serif" font-size="14" lengthAdjust="spacing" textLength="149.0781" x="1804.458" y="228.3247">Analyze Performance</text></g><!--entity UC14--><g class="entity" data-entity="UC14" data-source-line="32" data-uid="ent0020" id="entity_UC14"><ellipse cx="2083.9975" cy="223.6764" fill="#F5F5F5" rx="82.4975" ry="18.8995" style="stroke:#5C8DB8;stroke-width:0.5;"/><text fill="#000000" font-family="sans-serif" font-size="14" lengthAdjust="spacing" textLength="136.5273" x="2015.7338" y="228.3248">Supply Publications</text></g><!--entity customer--><g class="entity" data-entity="customer" data-source-line="13" data-uid="ent0002" id="entity_customer"><ellipse cx="640.002" cy="51.2969" fill="#FFFFFF" rx="8" ry="8" style="stroke:#5C8DB8;stroke-width:0.5;"/><path d="M640.002,59.2969 L640.002,86.2969 M627.002,67.2969 L653.002,67.2969 M640.002,86.2969 L627.002,101.2969 M640.002,86.2969 L653.002,101.2969" fill="none" style="stroke:#5C8DB8;stroke-width:0.5;"/><text fill="#000000" font-family="sans-serif" font-size="14" lengthAdjust="spacing" textLength="68.0039" x="606" y="115.792">Customer</text></g><!--entity staff--><g class="entity" data-entity="staff" data-source-line="14" data-uid="ent0003" id="entity_staff"><ellipse cx="1682.9963" cy="51.2969" fill="#FFFFFF" rx="8" ry="8" style="stroke:#5C8DB8;stroke-width:0.5;"/><path d="M1682.9963,59.2969 L1682.9963,86.2969 M1669.9963,67.2969 L1695.9963,67.2969 M1682.9963,86.2969 L1669.9963,101.2969 M1682.9963,86.2969 L1695.9963,101.2969" fill="none" style="stroke:#5C8DB8;stroke-width:0.5;"/><text fill="#000000" font-family="sans-serif" font-size="14" lengthAdjust="spacing" textLength="32.8125" x="1666.59" y="115.792">Staff</text></g><!--entity publisher--><g class="entity" data-entity="publisher" data-source-line="15" data-uid="ent0004" id="entity_publisher"><ellipse cx="2083.9988" cy="51.2969" fill="#FFFFFF" rx="8" ry="8" style="stroke:#5C8DB8;stroke-width:0.5;"/><path d="M2083.9988,59.2969 L2083.9988,86.2969 M2070.9988,67.2969 L2096.9988,67.2969 M2083.9988,86.2969 L2070.9988,101.2969 M2083.9988,86.2969 L2096.9988,101.2969" fill="none" style="stroke:#5C8DB8;stroke-width:0.5;"/><text fill="#000000" font-family="sans-serif" font-size="14" lengthAdjust="spacing" textLength="64.5176" x="2051.74" y="115.792">Publisher</text></g><!--entity admin--><g class="entity" data-entity="admin" data-source-line="16" data-uid="ent0005" id="entity_admin"><ellipse cx="2363.0003" cy="51.2969" fill="#FFFFFF" rx="8" ry="8" style="stroke:#5C8DB8;stroke-width:0.5;"/><path d="M2363.0003,59.2969 L2363.0003,86.2969 M2350.0003,67.2969 L2376.0003,67.2969 M2363.0003,86.2969 L2350.0003,101.2969 M2363.0003,86.2969 L2376.0003,101.2969" fill="none" style="stroke:#5C8DB8;stroke-width:0.5;"/><text fill="#000000" font-family="sans-serif" font-size="14" lengthAdjust="spacing" textLength="101.5205" x="2312.24" y="115.792">System Admin</text></g><!--link customer to UC1--><g class="link" data-entity-1="customer" data-entity-2="UC1" data-source-line="35" data-uid="lnk21" id="link_customer_UC1"><path d="M674.27,83.9169 C744.36,88.9369 908.07,105.7469 1034,158.0969 C1062.54,169.9669 1086.692,187.3549 1104.982,202.2049" fill="none" id="customer-to-UC1" style="stroke:#181818;stroke-width:1;"/><polygon fill="#181818" points="1109.64,205.9869,1105.1743,197.2086,1105.7583,202.8353,1100.1317,203.4193,1109.64,205.9869" style="stroke:#181818;stroke-width:1;"/></g><!--link customer to UC2--><g class="link" data-entity-1="customer" data-entity-2="UC2" data-source-line="36" data-uid="lnk22" id="link_customer_UC2"><path d="M605.76,84.2669 C533.66,90.0169 361.7,108.2269 227,158.0969 C196.68,169.3269 170.0817,185.2028 148.3917,199.7628" fill="none" id="customer-to-UC2" style="stroke:#181818;stroke-width:1;"/><polygon fill="#181818" points="143.41,203.1069,153.1119,201.4119,147.5614,200.3201,148.6531,194.7696,143.41,203.1069" style="stroke:#181818;stroke-width:1;"/></g><!--link customer to UC3--><g class="link" data-entity-1="customer" data-entity-2="UC3" data-source-line="37" data-uid="lnk23" id="link_customer_UC3"><path d="M605.69,89.2969 C558.35,100.2269 471.13,123.3169 403,158.0969 C376.5,171.6269 353.9896,188.9704 336.9896,203.3604" fill="none" id="customer-to-UC3" style="stroke:#181818;stroke-width:1;"/><polygon fill="#181818" points="332.41,207.2369,341.8637,204.4752,336.2263,204.0065,336.6951,198.3691,332.41,207.2369" style="stroke:#181818;stroke-width:1;"/></g><!--link customer to UC4--><g class="link" data-entity-1="customer" data-entity-2="UC4" data-source-line="38" data-uid="lnk24" id="link_customer_UC4"><path d="M605.82,114.2369 C574.89,143.4469 535.0524,181.0675 511.5324,203.2775" fill="none" id="customer-to-UC4" style="stroke:#181818;stroke-width:1;"/><polygon fill="#181818" points="507.17,207.3969,516.4599,204.126,510.8053,203.964,510.9673,198.3095,507.17,207.3969" style="stroke:#181818;stroke-width:1;"/></g><!--link customer to UC5--><g class="link" data-entity-1="customer" data-entity-2="UC5" data-source-line="39" data-uid="lnk25" id="link_customer_UC5"><path d="M652.74,119.2869 C661.85,145.9969 671.8241,175.2378 679.2041,196.8878" fill="none" id="customer-to-UC5" style="stroke:#181818;stroke-width:1;"/><polygon fill="#181818" points="681.14,202.5669,682.0223,192.7576,679.5268,197.8343,674.4501,195.3388,681.14,202.5669" style="stroke:#181818;stroke-width:1;"/></g><!--link customer to UC6--><g class="link" data-entity-1="customer" data-entity-2="UC6" data-source-line="40" data-uid="lnk26" id="link_customer_UC6"><path d="M674.22,97.9969 C706.17,113.1069 755.1,136.5769 797,158.0969 C824.91,172.4269 850.8278,186.4762 874.2578,199.4162" fill="none" id="customer-to-UC6" style="stroke:#181818;stroke-width:1;"/><polygon fill="#181818" points="879.51,202.3169,873.5655,194.4643,875.1331,199.8996,869.6979,201.4673,879.51,202.3169" style="stroke:#181818;stroke-width:1;"/></g><!--link staff to UC7--><g class="link" data-entity-1="staff" data-entity-2="UC7" data-source-line="42" data-uid="lnk27" id="link_staff_UC7"><path d="M1666.34,84.7569 C1623.23,92.4369 1505.06,116.0369 1415,158.0969 C1387.35,171.0069 1363.5488,187.8639 1345.0588,202.3039" fill="none" id="staff-to-UC7" style="stroke:#181818;stroke-width:1;"/><polygon fill="#181818" points="1340.33,205.9969,1349.8852,203.6099,1344.2707,202.9194,1344.9612,197.3048,1340.33,205.9969" style="stroke:#181818;stroke-width:1;"/></g><!--link staff to UC8--><g class="link" data-entity-1="staff" data-entity-2="UC8" data-source-line="43" data-uid="lnk28" id="link_staff_UC8"><path d="M1699.86,83.7469 C1804.87,94.9469 2365.11,154.8669 2368,158.0969 C2394.13,187.2869 2394.22,217.1369 2368,246.2469 C2308.29,312.5369 1690.8569,337.9431 1480.7169,344.7331" fill="none" id="staff-to-UC8" style="stroke:#181818;stroke-width:1;"/><polygon fill="#181818" points="1474.72,344.9269,1483.8445,348.6341,1479.7174,344.7654,1483.5861,340.6383,1474.72,344.9269" style="stroke:#181818;stroke-width:1;"/></g><!--link staff to UC9--><g class="link" data-entity-1="staff" data-entity-2="UC9" data-source-line="44" data-uid="lnk29" id="link_staff_UC9"><path d="M1666.16,95.1869 C1632.91,121.3269 1563.727,175.7188 1528.337,203.5388" fill="none" id="staff-to-UC9" style="stroke:#181818;stroke-width:1;"/><polygon fill="#181818" points="1523.62,207.2469,1533.1676,204.8295,1527.5509,204.1568,1528.2235,198.5401,1523.62,207.2469" style="stroke:#181818;stroke-width:1;"/></g><!--link staff to UC10--><g class="link" data-entity-1="staff" data-entity-2="UC10" data-source-line="45" data-uid="lnk30" id="link_staff_UC10"><path d="M1683,119.2869 C1683,147.6269 1683,179.2069 1683,200.3669" fill="none" id="staff-to-UC10" style="stroke:#181818;stroke-width:1;"/><polygon fill="#181818" points="1683,206.3669,1687,197.3669,1683,201.3669,1679,197.3669,1683,206.3669" style="stroke:#181818;stroke-width:1;"/></g><!--link staff to UC13--><g class="link" data-entity-1="staff" data-entity-2="UC13" data-source-line="46" data-uid="lnk31" id="link_staff_UC13"><path d="M1699.71,93.9469 C1733.96,118.5369 1807.466,171.3177 1848.306,200.6377" fill="none" id="staff-to-UC13" style="stroke:#181818;stroke-width:1;"/><polygon fill="#181818" points="1853.18,204.1369,1848.2018,195.6388,1849.1183,201.2209,1843.5362,202.1375,1853.18,204.1369" style="stroke:#181818;stroke-width:1;"/></g><!--link publisher to UC14--><g class="link" data-entity-1="publisher" data-entity-2="UC14" data-source-line="48" data-uid="lnk32" id="link_publisher_UC14"><path d="M2084,119.2869 C2084,146.8169 2084,177.0569 2084,198.5069" fill="none" id="publisher-to-UC14" style="stroke:#181818;stroke-width:1;"/><polygon fill="#181818" points="2084,204.5069,2088,195.5069,2084,199.5069,2080,195.5069,2084,204.5069" style="stroke:#181818;stroke-width:1;"/></g><!--link admin to UC12--><g class="link" data-entity-1="admin" data-entity-2="UC12" data-source-line="50" data-uid="lnk33" id="link_admin_UC12"><path d="M2339.91,119.2869 C2322.4,147.6269 2302.3148,180.1032 2289.2348,201.2632" fill="none" id="admin-to-UC12" style="stroke:#181818;stroke-width:1;"/><polygon fill="#181818" points="2286.08,206.3669,2294.2146,200.8146,2288.709,202.1138,2287.4098,196.6082,2286.08,206.3669" style="stroke:#181818;stroke-width:1;"/></g><!--link admin to UC13--><g class="link" data-entity-1="admin" data-entity-2="UC13" data-source-line="51" data-uid="lnk34" id="link_admin_UC13"><path d="M2311.9,89.9269 C2222.89,104.1969 2043.25,134.7869 1984,158.0969 C1954.53,169.6969 1928.9234,185.9808 1908.4434,200.6008" fill="none" id="admin-to-UC13" style="stroke:#181818;stroke-width:1;"/><polygon fill="#181818" points="1903.56,204.0869,1913.2091,202.1133,1907.6295,201.1818,1908.561,195.6022,1903.56,204.0869" style="stroke:#181818;stroke-width:1;"/></g><!--link UC3 to UC11--><g class="link" data-entity-1="UC3" data-entity-2="UC11" data-source-line="53" data-uid="lnk35" id="link_UC3_UC11"><path d="M315,240.6569 C315,261.6269 315,292.6069 315,316.9369" fill="none" id="UC3-to-UC11" style="stroke:#181818;stroke-width:1;stroke-dasharray:7.0,7.0;"/><polygon fill="#181818" points="315,322.9369,319,313.9369,315,317.9369,311,313.9369,315,322.9369" style="stroke:#181818;stroke-width:1;"/><text fill="#000000" font-family="sans-serif" font-size="13" lengthAdjust="spacing" textLength="63.0068" x="316" y="289.3138">&#171;include&#187;</text></g><!--link UC4 to UC8--><g class="link" data-entity-1="UC4" data-entity-2="UC8" data-source-line="54" data-uid="lnk36" id="link_UC4_UC8"><path d="M536,236.7969 C549.73,240.2069 564.92,243.6769 579,246.2469 C860.53,297.7069 1194.9615,329.2589 1335.0215,341.1589" fill="none" id="UC4-to-UC8" style="stroke:#181818;stroke-width:1;stroke-dasharray:7.0,7.0;"/><polygon fill="#181818" points="1341,341.6669,1332.3709,336.9193,1336.0179,341.2436,1331.6937,344.8906,1341,341.6669" style="stroke:#181818;stroke-width:1;"/><text fill="#000000" font-family="sans-serif" font-size="13" lengthAdjust="spacing" textLength="63.0068" x="874" y="289.3138">&#171;include&#187;</text></g><!--SRC=[TPDXQzim48Q_wrU8z7FAd3YjMqeWTSlOXz6ma1zmbI-EY2qPILx9nlxxJhPbBDDY3BgxH- -zd2HxaQe10pLlBGgmoFyopfz1N4gZMrNakjA6tvms_lCLRGeqGtOZik8zO_yOiwCC24UbpqG-pjBXrn9EkWhvuMeTrlm5hImLeVfYIG_vaX_9M-uDlaWegHDZVQj5tX9Ierbmi5mCGIWU79nENSNwLKZls_TAslEmgGdHkAjtiIjggJe2_8enWyA1AidduYkZVNxHJI2CTF5iz8UthwkA5AJkHOzvCeKE24QS-OaCTFO4UD8Ew6gAvWR18Ty9GUDr0x6U4lkMjFpg1xa96kcKeCreBKspb0ugygOSZbgRI0kCaq8slgLKHDPrgwIx3kpTbFq92ahggdwJc3Q1kO_qZEvQl_bx4BnbK-BO5BvP3kHCbmFnC2NUJ0bA_a7-wXi5aUJRbFcE2etN-OM2FACgeeacIMnSAaV_U80z4urzfw2wKiyz6Zgb6fJ0m4N3FxHDKrq_EyKazLSzN5A-N6wxMp1BhEQ9zJoHpXERUUAE7gM_yKDu7qLP53r44Sqm2jUCZUyZv59wVFv5X7WLXxI5FFFRsovA-2D_Uf9AL6s1sosLqg6KnPN_]--></g></svg>